<?xml version="1.0" encoding="utf-8"?>
<!-- Generator: Adobe Illustrator 23.0.2, SVG Export Plug-In . SVG Version: 6.00 Build 0)  -->
<svg version="1.1" id="b3476446-c29b-489b-91f9-6dd64a8ef5f6"
	 xmlns="http://www.w3.org/2000/svg" xmlns:xlink="http://www.w3.org/1999/xlink" x="0px" y="0px" viewBox="0 0 713.4 781.3"
	 style="enable-background:new 0 0 713.4 781.3;" xml:space="preserve">
<style type="text/css">
	.st0{fill:#F2F2F2;}
	.st1{fill:#3F3D56;}
	.st2{fill:#FDC134;}
	.st3{fill:#FFFFFF;}
	.st4{fill:#354468;}
	.st5{fill:#2F2E41;}
	.st6{fill:#9E7663;}
	.st7{fill:#D0CDE1;}
	.st8{opacity:0.1;enable-background:new    ;}
	.st9{fill-rule:evenodd;clip-rule:evenodd;fill:#F4F2EF;}
	.st10{fill-rule:evenodd;clip-rule:evenodd;fill:#2D3451;}
	.st11{fill:#EAC292;}
</style>
<title>referral</title>
<path class="st0" d="M629.4,705.9l-229.2,0.8c-60.8-18.3-110.6-81.7-110.9-176.9c-0.1-14.3,1-28.7,3.2-42.8l184.6-41.5l142.4-32
	c10.5,9.4,20.3,19.6,29.3,30.4l-136.2,71.9l-64.2,33.9l72.2-24.9l149.8-51.7c9.3,14.3,17.7,29.2,24.9,44.7l-45.2,46.7l51.1-33.5
	c0.2,0.5,0.4,1,0.7,1.5C734.3,609.6,694.1,705.7,629.4,705.9z"/>
<path class="st0" d="M591.8,392c-34.7,10-77.3,22.5-121.1,35.6c-63.4,18.9-129.2,38.9-177.2,53.4v-0.2c1.8-10.2,5.9-19.9,12.2-28.2
	c35.5-46.2,80.7-78.4,131.1-90.4l0,0c14.2-3.4,28.7-5.1,43.2-5.2C520,356.9,558,369.5,591.8,392z"/>
<ellipse class="st1" cx="360.2" cy="710.5" rx="228" ry="17"/>
<path class="st1" d="M520.9,29.1v648.2c0,16.1-13.1,29.1-29.1,29.1H228.6c-16.1,0-29.1-13-29.1-29v-0.1V29.1
	c0-16.1,13-29.1,29.1-29.1l0,0H268v5c0,13.2,10.7,24,24,24h133.8c5.1,0,10.1-1.6,14.2-4.7c0.8-0.6,1.6-1.3,2.4-2
	c4.7-4.5,7.4-10.8,7.4-17.3V0h42C507.9,0,520.9,13,520.9,29.1L520.9,29.1z"/>
<path class="st1" d="M323.3,275.5l8.8-12.3l-8.8,13.6v1.4c-0.6,0-1.2,0-1.8-0.1l0.9-18.1v-0.1l0,0l0.1-1.7l-8.8-13.7l8.9,12.4v0.4
	l0.7-13.7l-7.6-14.1l7.7,11.7l0.7-28.3v-0.1v0.1l-0.1,22.4l7.5-8.9l-7.5,10.8l-0.2,12.2l7-11.8l-7,13.6l-0.1,6.8l10.2-16.4
	l-10.2,18.7L323.3,275.5z"/>
<polygon class="st2" points="474.2,484.7 246.2,484.7 246.2,507 246.2,540.9 246.2,560 265.3,540.9 474.2,540.9 "/>
<rect x="297.1" y="498.3" class="st3" width="128.3" height="10.4"/>
<rect x="297.1" y="513.9" class="st3" width="128.3" height="10.4"/>
<polygon class="st2" points="246.2,382.2 474.2,382.2 474.2,404.5 474.2,438.4 474.2,457.5 455.1,438.4 246.2,438.4 "/>
<rect x="285.1" y="396.8" class="st3" width="128.3" height="10.4"/>
<rect x="285.1" y="412.4" class="st3" width="128.3" height="10.4"/>
<path class="st0" d="M237.2,146.4V330h246V146.4H237.2z M268.9,148.8c2.2,0,4,1.8,4,4s-1.8,4-4,4s-4-1.8-4-4l0,0
	C264.9,150.5,266.7,148.8,268.9,148.8L268.9,148.8L268.9,148.8z M245.1,156.7c-2.2,0-4-1.8-4-4s1.8-4,4-4s4,1.8,4,4
	S247.3,156.7,245.1,156.7L245.1,156.7z M253,152.7c0-2.2,1.8-4,4-4c2.2,0,4,1.8,4,4s-1.8,4-4,4l0,0C254.8,156.7,253,154.9,253,152.7
	L253,152.7L253,152.7z"/>
<rect x="470" y="149.7" class="st3" width="7.9" height="1"/>
<rect x="470" y="152.7" class="st3" width="7.9" height="1"/>
<rect x="470" y="155.7" class="st3" width="7.9" height="1"/>
<rect x="410.2" y="178.5" class="st4" width="59.8" height="3"/>
<rect x="410.2" y="188.7" class="st4" width="59.8" height="3"/>
<rect x="410.2" y="198.9" class="st4" width="59.8" height="3"/>
<rect x="410.2" y="209.2" class="st4" width="59.8" height="3"/>
<rect x="410.2" y="219.4" class="st4" width="59.8" height="3"/>
<rect x="410.2" y="229.7" class="st4" width="59.8" height="3"/>
<rect x="410.2" y="239.9" class="st4" width="59.8" height="3"/>
<rect x="410.2" y="250.1" class="st4" width="59.8" height="3"/>
<rect x="410.2" y="260.4" class="st4" width="59.8" height="3"/>
<rect x="410.2" y="270.6" class="st4" width="59.8" height="3"/>
<circle class="st3" cx="264.9" cy="285.5" r="4"/>
<circle class="st3" cx="278.5" cy="285.5" r="4"/>
<circle class="st3" cx="292" cy="285.5" r="4"/>
<rect x="410.2" y="304.9" class="st2" width="59.8" height="16.8"/>
<path class="st5" d="M541.8,692.3l-4.7-3.5c0,0-3.1,17.5,0.4,20.2s16.6,7,16.6,12.3s29.8,12.3,30.7,4.4s-2.6-12.3-2.6-12.3
	s-14-14-15.8-16.6s-6.1-7.9-6.1-7.9L541.8,692.3z"/>
<path class="st5" d="M611.9,474.1c0,0-0.1,0.8-0.4,2.2c-0.2,1.3-0.5,3-0.8,5.2c-3.7,22.5-14.4,88.6-13.7,90.7c0.9,2.6,7,12.3,0,14.9
	c-1,0.6-1.7,1.4-2.2,2.4c-1.5,2.8-2.7,5.7-3.7,8.7c-4.2,12.1-8.6,31.5-11.2,45c-1.1,5.9-1.9,10.7-2.1,13.1c-0.1,0.6-0.1,1.2,0,1.7
	c0.9,3.5-5.3,15.8-7.9,19.3s-7,7-6.1,10.5s-21.9,13.1-24.5,7s-2.6-9.6-3.5-11.4s-1.8-14,2.6-15.8s1.8-32.4,6.1-38.6
	c1.5-2,3.7-9,6-17.3c0.9-3.3,1.8-6.7,2.8-10.2c3.7-14.3,7-28.6,7-28.6l-0.9-102.5l48.2-6.1l1.2,2.7l2.5,5.4L611.9,474.1z"/>
<path class="st5" d="M614.5,642.3c0,0,7-7,10.5,0s7,34.2,13.1,40.3s14,36.8,5.3,38.6s-18.4-2.6-19.3-7.9s-19.3-32.4-19.3-35
	s12.3-12.3,12.3-12.3L614.5,642.3z"/>
<path class="st5" d="M506.7,425.9c0,0,11.4,102.5,14,112.1s16.6,46.4,21,52.6s32.4,56.1,35.9,58.7s10.5,9.6,10.5,9.6
	s13.1,13.1,14.9,15.8s16.6-5.3,17.5-10.5s-0.9-14-1.8-17.5s1.8-8.8-0.9-11.4S602,619.5,602,613.4s-22.8-42.1-31.5-49.9s-7-21-7-21
	V489l48.2-14.9c0,0-2.6-42.1-8.8-42.1S516.4,418,506.7,425.9z"/>
<circle class="st6" cx="577.7" cy="250.7" r="28.9"/>
<path class="st6" d="M568.1,273.5c0,0-3.5,13.1-7.9,16.6s11.4,18.4,11.4,18.4l29.8,1.8l5.3-16.6c0,0-9.6-19.3-7-31.5
	C602.3,250,568.1,273.5,568.1,273.5z"/>
<path class="st1" d="M555.8,288.4c0,0,7.9,0.9,9.6,3.5s14,10.5,23.7,8.8s15.8-4.4,17.5-3.5s5.3,19.3,5.3,19.3l-9.6,28l1.8,77.1
	l2.6,21c0,0,5.3-7-15.8-2.6s-48.2-3.5-57-4.4s-23.7-3.5-24.5-8.8s2.6-24.5,2.6-24.5l14-58.7l8.8-31.5L555.8,288.4z"/>
<path class="st7" d="M564.1,284.4c0,0-7.4-3.9-10-0.4s-35.9,8.8-35.9,11.4s-7,73.6-5.3,79.7s-3.5,13.1-3.5,13.1l-6.1,26.3
	c0,0-16.6,49.9-9.6,51.7s13.1,0,15.8,0c2.7,0,1.8-33.3,8.8-42.1s16.6-30.7,18.4-35s23.7-64.8,22.8-71.8S564.1,284.4,564.1,284.4z"/>
<path class="st7" d="M600.5,288.4c0,0,7,0,7.9,1.8s9.6,13.1,13.1,15.8s15.8,14,15.8,16.6s-25.4,21.9-25.4,21.9s-10.5,51.7-5.3,69.2
	s13.1,59.6,9.6,62.2s-11.4,3.5-11.4,0s-5.3-41.2-9.6-49.1S577.7,369,583,354.9S600.5,288.4,600.5,288.4z"/>
<path class="st6" d="M484.8,375.1c0,0-0.9,27.2,8.8,41.2c6.3,9.4,11.5,19.4,15.8,29.8c0,0,15.8-4.4,18.4-9.6s19.3-0.9,19.3-2.6
	s-20.2-10.5-21.9-12.3s-7.9-1.8-11.4-5.3s-4.4-11.4-4.4-11.4l-3.5-22.8L484.8,375.1z"/>
<path class="st5" d="M557.8,232.8c-2.2-0.1-4.4-0.6-6.5-1.5c-4.4-2.4-5.6-9.1-2.2-12.9c0.9-0.9,2-1.8,3.1-2.5l6.7-4.5
	c2.9-2,6-4,9.4-5c3.1-0.7,6.4-0.9,9.6-0.6c6.3,0.2,12.5,1.3,18.4,3.3c5.9,2.2,11.4,5.8,14.9,10.9c5.6,8.2,5.7,19.2,2.6,28.6
	s-9,17.6-14.8,25.7l-3-14.7c-0.3-1.3-0.6-2.7-1.7-3.5c-2.7-1.9-6,2-9.3,2c-2.1,0-3.9-1.8-4.7-3.8c-0.7-2-1-4.2-1.1-6.3
	c-0.4-4.5-2-10.8-6.2-13.3C568.9,232.6,562.3,233.3,557.8,232.8z"/>
<path class="st8" d="M559.4,474.8c0,0,3,85.6,4.7,88.2s0-88.5,0-88.5L559.4,474.8z"/>
<path class="st7" d="M525.1,295.4h-7c0,0-29.8,40.3-26.3,42.9s0,9.6,0,9.6l-7,13.1c0,0-8.8,7.9-6.1,9.6s6.1,8.8,6.1,8.8
	s17.5-2.6,22.8,7.9L519,373L525.1,295.4z"/>
<path class="st6" d="M604.9,370.7c0,0-19.3,0.9-41.2-13.1l-21.9-9.6c0,0-19.3-29.8-21-24.5s2.6,15.8,2.6,15.8s-28.7,5.5-27.1,13.9
	c0.3,1.7,14.9-2.5,14.9-2.5s-2.6,16.6,12.3,17.5c14.9,0.9,19.3-2.6,19.3-2.6s63.1,52.6,73.6,35.9S604.9,370.7,604.9,370.7z"/>
<path class="st7" d="M627.7,319l9.6,3.5v26.3l3.5,5.3c0,0-0.9,10.5-3.5,13.1s-7.9,1.8-6.1,7.9c1.1,4,1.4,8.2,0.9,12.3
	c0,0-15.8,20.2-16.6,17.5s-13.1-35-14.9-35S618,319,618,319H627.7z"/>
<path class="st5" d="M512.4,451.8c0,0-9.1-8.8-4.5-9.2c4.6-0.4,20.3-9.2,22.9-4.8S512.4,451.8,512.4,451.8z"/>
<g>
	<path class="st9" d="M410.4,606.7c0,4.9-0.6,2.9,5.6,3.4c-0.4,1-2.4,2.5-3.2,3.4c0.4,0.7,2.4,2.6,3,3c0.8-0.4,1-0.9,2.2-1.1
		c1.1-0.2,1.9,0,2.7,0.5c1.2,0.7,2.5,2.5,1.5,4.7c-1.5,3.6-6.9,2.9-7.3-1.4h-4.5c0.2,6.2,6.3,9.8,11.6,7.5c1.4-0.6,1.7-1.1,2.6-1.8
		c1.3,0.7,2.9,2.8,6.7,2.4c3.4-0.3,4.4-1.9,6-3.2c1.4,0.9,3.1,3.2,7.6,3.2c6,0,10.8-4.6,11-10.4c0.4-9.4-10.1-14.3-17.1-9.3
		c-2,1.5-2.3,2.3-3.7,4.5l-1.8-0.8c0.7-1.4,4.2-3.9,5.2-5.6h-5.2c-1.5,0-2.9,1.9-4.5,3.6l-4.2,4.1l-3.3-2.1l4.1-4.3
		c0.5-0.5,0.9-0.6,1.1-1.3h-15.6C410.3,605.6,410.4,606,410.4,606.7L410.4,606.7z M429.6,615.6c-5.2,1.9-2.1,8.8,2.4,7.1
		C436.6,621,434.2,613.9,429.6,615.6L429.6,615.6z M443.7,610.3c-8.6,2.3-5.1,14.4,3.1,12.4c2.9-0.7,5.4-4,4.5-7.7
		C450.6,612.1,447.5,609.3,443.7,610.3L443.7,610.3z"/>
	<path class="st9" d="M362.7,626.6c1.9,1.7,0.5,2.6,7.5,2.1c-0.2-0.6-1.6-2.2-2.2-2.9c-1.7-2.1-1.7-1.2,0-3.2
		c6-7.2,0.4-19.5-10.6-16.5c-4.8,1.3-9.8,6.9-8.3,13.4C350.4,625.5,356,628.6,362.7,626.6L362.7,626.6z M358.8,610.5
		c-6.5,2.4-4.4,14.4,1.6,12.1c6.5-2.5,4.7-14.1-1.4-12.2C358.9,610.4,358.9,610.5,358.8,610.5L358.8,610.5z"/>
	<path class="st9" d="M336.1,606c-5.3,1.1-9.9,5.6-9.7,11.9c0.2,5.9,5.5,10.5,12,9.3c5.2-1,9.7-5.9,9.5-12
		C347.8,609.3,342.5,604.7,336.1,606L336.1,606z M336.3,610.3c-6.1,2-4.8,14.9,1.7,12.3C344.3,620.2,342.8,608.2,336.3,610.3
		L336.3,610.3z"/>
	<path class="st9" d="M289.6,627h5.7l0.8-9.3c0.1-0.9,0-0.7,0.4-1.2c0.7,1.6,4.8,8.3,6,10.4c1.2,0.1,4.7,0.3,5.8-0.1l1.8-20.8h-5.6
		c-0.8,2-0.3,8.8-1.3,10.2c-0.8-0.9-3.9-6.7-5-8.5c-1-1.7-0.5-1.8-2.7-1.8c-0.9,0-2.4-0.1-3.2,0c-1.2,0.1-0.9,1-1,2.4
		C290.9,612.1,289.5,624.8,289.6,627L289.6,627z"/>
	<path class="st9" d="M390.3,606.1c-0.7,0-5.1-0.3-5.6,0.3c-0.4,0.7-0.8,7.6-0.9,9c-0.2,2.9,0.1,6.9-3.3,7.2c-3.8,0.2-2.8-4.2-2.6-7
		c0.2-2.7,0.9-7,0.7-9.5c-7-0.3-5.6-0.1-5.8,2.2c-0.1,1.2-0.2,2.4-0.3,3.7c-0.2,2.4-0.6,4.9-0.6,7.3c0.1,4.5,3.5,8,8,8.1
		c5,0,7.5-3.5,8.9-7C389.5,618.5,390.5,608.1,390.3,606.1L390.3,606.1z"/>
	<path class="st9" d="M273.1,626.9c1.5,0.4,12.4,0.2,14.5,0.1l0.4-4.4c-1.6,0-7.8,0.3-8.5-0.2l-0.1-0.3c0,0,0-0.1,0-0.2v-1.1
		c0.1-0.7,0.1-1.4,0.3-2l5.6-0.1c0.3-1.2,0.6-3.3,0.3-4.4l-5.6-0.1l0.1-3.6c2.4-0.3,7,0.5,8.7-0.3c0.5-1,0.5-3.1,0.4-4.3h-14.3
		l-0.9,10.5C273.7,619.4,272.9,624.3,273.1,626.9L273.1,626.9z"/>
	<path class="st9" d="M392.9,606.1c-0.6,1.4-0.3,3.6-0.4,5.2c-0.3,4.3-1.5,11.4-1.4,15.8h14.5l0.4-4.3l-8.5-0.1
		c-0.4-1.1,0-2.6,0.1-3.8l5.6-0.1c0.3-1,0.6-3.3,0.4-4.3l-5.6-0.1l0.1-3.5c1.5-0.5,6.7,0,8.7-0.2l0.5-4.4
		C404,605.9,396.9,606,392.9,606.1L392.9,606.1z"/>
	<path class="st9" d="M310.9,626.9l5.7,0.1l0.8-8.1c1.6-0.6,4.3,0.4,5.6-0.4c0.5-0.8,0.6-3.1,0.4-4.2l-5.6-0.1l0.1-3.6
		c2.3-0.2,6.2,0.1,7.8-0.1c1.4-0.1,1.6-1,1.3-4.5h-14.3c-0.3,1.8-0.3,3.4-0.3,5C312.4,613.5,310.8,622.8,310.9,626.9L310.9,626.9z"
		/>
	<path class="st9" d="M433,630.5l0.6,0.8c-4.1,2.4-5.2,4.1-11.4,6.3c-2,0.7-5,1.6-7.3,1.1c-1.2-0.3-2.1-0.7-2.7-1.6
		c-1.1-1.6-0.5-2.9-0.9-3.8c-0.6,1.1-1,3.1-0.7,4.8c1.5,7.3,15.3,0.9,19.5-1.7l5-3.4c1-0.8,0.8-0.4,2-0.1l1-4.9
		C437.4,627.9,433.7,630,433,630.5L433,630.5z"/>
	<path class="st9" d="M443.5,592.7c2.1,0,3.1-0.5,5.2,0.3c3.4,1.3,3.7,4.9,3,8.1c-0.4,1.6-1.2,3.2-1.4,4.5c3.4,0,4.1,1,5.2-5.3
		C457.1,590.6,448.9,590.3,443.5,592.7L443.5,592.7z"/>
	<path class="st9" d="M429.9,601l-1.4-0.6l-0.8,4.7c0.7,0,3.7-1.8,4.4-2.3c-0.2-0.7-0.3,0-0.6-1c0.7-0.4,1.3-0.9,2.1-1.5
		c2.3-1.7,4.5-3,7.3-4.2c3.1-1.2,8.1-2.1,8.9,2.1c0.2,0.9,0,1,0.5,1.7c0.2-3,0.3-5.1-2.1-6.2c-3.6-1.6-10.2,1.7-13,3.6L429.9,601z"
		/>
	<path class="st9" d="M416.7,637.2c1.9,0,2.7-0.5,4.2-0.8c-2.6-0.1-4.9-0.1-5.4-2.4c-0.6-2.7,1.4-4.9,1.3-6.3
		c-2.3-0.2-2.1-0.3-2.8,1.4C412.8,632.2,411.3,637.2,416.7,637.2L416.7,637.2z"/>
</g>
<g>
	<path class="st10" d="M320,291.5v-49.9c2.4,1.6,8,11.3,10.5,11.3c0.9,0,5.8-1.8,7.1-2.1c2.4-0.6,4.8-1.5,7-2.2
		c2.4-0.8,4.8-1.4,7.1-2.2l7.3-2.2v34.6L320,291.5z M281,245.2l25,8.3c3.2,1,3.8-1.6,6.5-6c0.5-0.8,0.8-1.3,1.3-2.1
		c0.3-0.4,0.4-0.6,0.6-1.1l0.7-1v48c-1.4-0.3-2.9-1-4.3-1.5l-25.5-9.4c-1.4-0.5-2.9-1.2-4.3-1.5L281,245.2L281,245.2z M274.9,223.1
		c0.9,0,25.9,8.4,29,9.4c1.6,0.5,8.7,3,9.8,3.1c-0.1,1-1.2,2.4-1.7,3.2c-0.9,1.4-5.4,8.6-5.7,9.5l-39.2-12.8
		C268,233.9,274.6,223.1,274.9,223.1L274.9,223.1z M331.2,247.4c-0.7-1.1-1.4-1.8-2.2-2.8c-0.8-1-6.8-8-7-8.9l38.8-12.8
		c0.7,0.5,11.7,10.9,12,12c-1.4,0.1-8.1,2.5-10.3,3.1c-6.1,1.6-14.3,4.5-20.6,6.4C339.7,244.9,332.7,247.3,331.2,247.4L331.2,247.4z
		 M282,219.8c1.1-0.1,3.6-1.1,4.7-1.4c2.3-0.8,13.5-4.6,14.4-4.6c0.2,0,2.9,2.7,3.4,3.1l3.9,2.6c8,4.5,18.9,3.7,26.2-1.8
		c4.9-3.6,0.2-3.9,14.7,0.9c1,0.3,2.9,1.1,3.9,1.2v0.5c-1.7,0.1-34.7,11.5-35.6,11.5l-30.9-10.1c-1.1-0.3-3.5-1.3-4.7-1.4V219.8z
		 M360.7,217.1l-19.5-6.3c0.1-2.2,3.1-3.5,3.1-14.1c4.8,1.1,18.8,5.9,24.6,7.4c1.1,0.3,2.4,0.9,3.7,1
		C372.4,206.3,361.4,216.7,360.7,217.1L360.7,217.1z M319.8,179.2c7.8,0,14.5,4.4,17.9,11.2c5.2,10.6-1.4,24-13.1,26.6
		c-9.1,2.1-18.7-2.6-22.2-10.6c-2.2-5.1-2.5-10.5-0.2-15.7C305.3,184,312.5,179.2,319.8,179.2L319.8,179.2z M295.6,196.2
		c0,5.2,0.1,8.5,2.7,13.2l-23.9,7.7c-1.4-1-4.6-4.4-6-5.8c-1.1-1.1-2-1.9-3-3c-0.8-0.8-2.6-2.1-2.9-3.2c1.4-0.1,3-0.8,4.2-1.2
		l20.9-6.4c1.4-0.5,2.6-0.8,4.1-1.3c1.4-0.5,2.8-1,4.3-1.3C295.7,195.6,295.6,195.6,295.6,196.2L295.6,196.2z M255.2,203.9
		c0,2,1.3,2.6,3.5,4.7l11.9,11.8l-4.9,7.9c-6.8,11.2-7.4,9.4,6.2,13.8c1.2,0.4,3.2,1.2,4.3,1.3v35.3c0,4.3,0,3.3,6.3,5.8l26.1,9.6
		c1.5,0.5,3,1.1,4.4,1.6c6.2,2.2,3.7,2,14.3-1.5l33.5-11c1.8-0.6,3.2-0.6,3.2-3.1c0.2-11.9,0-25.6,0-37.7l4.4-1.2
		c1.4-0.4,2.7-0.9,4.3-1.3c3-0.9,7.5-1.7,7.5-3.9c0-2.1-1.8-3.1-3.4-4.6L365.1,220l13.4-13.3c1.1-1.1,1.5-1.1,1.5-2.8
		c0-1.6-1.4-2.1-2.8-2.5c-3.6-1-33.2-9.9-33.8-10.4c-0.5-0.5-0.5-1.1-0.8-1.9c-0.3-0.7-0.6-1.2-1-1.9c-3.5-7-12.1-12.8-20.6-12.8
		c-7.5,0-13.1,2-18.2,7c-4.1,4-4.9,7.1-5.3,7.7c-0.5,0.6,0.3,0.1-0.9,0.5c-0.9,0.3-1.3,0.4-2.2,0.7l-35.7,10.9
		C257.1,201.7,255.2,202.1,255.2,203.9L255.2,203.9z"/>
	<path class="st10" d="M317.6,202c-2.4-1.6-2.4-3.6-5.4-3.6c-1.4,0-2,1.6-2,2.9c0,1,5.8,6.7,6.8,6.7h1c1.1,0,7.4-6.7,8.6-7.9
		c1.2-1.1,8-7.4,8-8.5c0-2.1-0.8-2.9-2.9-2.9C330.1,188.8,320,200.4,317.6,202L317.6,202z"/>
	<path class="st10" d="M290.8,275.4c0,2.5,2,2.6,4.1,3.4l11,4c2.2,0.8,4.4,0.7,4.4-2c0-2.4-4-3.1-7.6-4.5c-2.4-0.9-7.8-3.2-9.7-3.2
		C291.7,273.3,290.8,274.2,290.8,275.4L290.8,275.4z"/>
	<path class="st10" d="M307.8,273.3c1.1,0,2.4-1.1,2.4-2.6c0-1.9-1.8-2.3-3.3-2.8c-1.7-0.6-6.1-3.2-7,0.4c-0.3,1.2,0.2,2,1.2,2.7
		C301.7,271.2,307.3,273.3,307.8,273.3L307.8,273.3z"/>
	<path class="st10" d="M290.8,265.1c0,4.4,4.9,3,4.9,1C295.6,261.6,290.8,263.1,290.8,265.1L290.8,265.1z"/>
</g>
<path class="st5" d="M144.9,535.5l-2.2,76.7L119.3,702c0,0,5.1,15.3,1.5,19s-20.4,10.2-20.4,10.2l13.9-191.3L144.9,535.5z"/>
<path class="st5" d="M94.2,720.6c0,0-8.3,18.3,3.3,20s65.6,6.1,62.2-3.3S115.8,719,115.8,719L94.2,720.6z"/>
<path class="st5" d="M63.1,467.6c0,0,8.8,47.5,14.6,55.5s-2.9,66.5-2.9,66.5s-13.1,84-7.3,97.1s4.4,8.8,3.7,16.1s-2.2,13.1,0,19.7
	s2.2,5.8,2.9,9.5s0,23.4,0,23.4s31.4,11,36.5-5.1c0,0-7.3-10.2-5.1-18.3c2.3-8.1,3.5-16.4,3.7-24.8v-15.3l33.6-125.6l8-45.3
	c0,0-2.2-46-10.2-50.4S63.1,467.6,63.1,467.6z"/>
<path class="st5" d="M76.3,751.7c0,0-11,24.1,4.4,26.3s86.2,8,81.8-4.4s-57.7-24.1-57.7-24.1L76.3,751.7z"/>
<circle class="st11" cx="90.1" cy="228.1" r="29.2"/>
<path class="st11" d="M69.6,241l0.5,37.3l35.8,0.1c0,0-9.1-29.2-5-35.3S69.6,241,69.6,241z"/>
<path class="st1" d="M123,298.9c0,0-25.6-32.9-45.3-19s-27,46.7-27,46.7l4.4,92c0,0,11,13.1,4.4,21.9s-10.2,6.6-5.1,13.1
	s11,11.7,8.8,13.9s2.2,3.7,2.2,3.7l77.4,2.2c0,0-2.2-2.9,4.4-11.7s-1.5-20.4,0-24.8s2.9,0.7,3.7-9.5S123,298.9,123,298.9z"/>
<path class="st11" d="M115.7,487.3c0,0,1.5,18.3,12.4,21.2c4.1,1.1,7.2-1,9.4-4c4.3-6,4.5-13.9,0.6-20.1l-2.7-4.3L115.7,487.3z"/>
<path class="st1" d="M48.1,262c0,0-0.7,14.6,0,16.8s1.5,4.4,0,6.6s-0.7,9.5,0.7,10.2s-2.9,7.3-1.5,11.7s2.9,5.8,3.7,7.3
	s1.9,4.1,1.9,4.1s21.5-45.7,39-34.7s31.4,14.6,31.4,14.6S113.9,247.4,48.1,262z"/>
<path class="st1" d="M79.9,296c0,0-23.4,2.2-21.9,32.9s-2.2,78.9-2.2,78.9s40.2,61.3,46.7,65.7s7.3,3.7,6.6,7.3s-1.5,6.6,1.5,9.5
	c1.7,1.7,3.7,3.2,5.8,4.4c0,0,23.4-8,21.2-15.3s-12.4-19-12.4-19s-17.5-28.5-18.3-32.9s-0.7-3.7-2.9-5.8s-8-11-8-15.3v-13.9
	l6.1-74.2c0.6-6.1-1.5-12.2-5.7-16.6C92.9,297.9,87.7,295.1,79.9,296z"/>
<path class="st5" d="M109,205.6c3.9,1.1,8,0.1,11-2.5c2.9-2.7,3.8-7.4,1.8-10.8c-1.8-2.9-5.2-4.3-8.4-5.4
	c-7.2-2.2-14.6-3.4-22.1-3.4c-3.6,0-7.3,0.3-10.4,2.2c-1.5,0.9-2.8,2.2-4.3,3.1c-2.8,1.7-6.1,2.3-9.1,3.5
	c-6.3,2.5-11.1,7.7-13.3,14.1c-0.7,2.1-1.1,4.4-1.3,6.6c-0.5,6.1,0.6,12.3,3.2,17.9c4.1,8.9,11.8,16.4,12.9,26.1
	c4.2-3.5,5.4-9.4,8.6-13.8c2.4-3.2,5.8-5.6,9.7-6.6c1.1-0.1,2.1-0.6,3-1.3c0.6-0.8,0.9-1.7,0.9-2.7l2-14.4c0.4-2.9,1-6.1,3.2-8.1
	c1.4-1.1,3.1-1.8,4.8-2.1c4.1-1,8.3-1.7,12.5-2"/>
<path class="st8" d="M59.4,418.2l41,53.2C100.4,471.4,62.6,439.8,59.4,418.2z"/>
<polygon class="st8" points="98.7,359.2 98.3,409.5 122.1,445.2 102.7,405.2 "/>
</svg>
