<?xml version="1.0" encoding="utf-8"?>
<!-- Generator: Adobe Illustrator 23.0.2, SVG Export Plug-In . SVG Version: 6.00 Build 0)  -->
<svg version="1.1" id="ae5f5559-570c-4c14-9324-22f1786600a2"
	 xmlns="http://www.w3.org/2000/svg" xmlns:xlink="http://www.w3.org/1999/xlink" x="0px" y="0px" viewBox="0 0 626.1 526"
	 style="enable-background:new 0 0 626.1 526;" xml:space="preserve">
<style type="text/css">
	.st0{fill-rule:evenodd;clip-rule:evenodd;fill:#252A42;}
	.st1{fill-rule:evenodd;clip-rule:evenodd;fill:#F6BB40;}
	.st2{fill-rule:evenodd;clip-rule:evenodd;fill:#E1A729;}
	.st3{fill-rule:evenodd;clip-rule:evenodd;fill:#FAFAFA;}
	.st4{fill-rule:evenodd;clip-rule:evenodd;fill:#C37D58;}
	.st5{fill-rule:evenodd;clip-rule:evenodd;fill:#F5C9A3;}
	.st6{fill-rule:evenodd;clip-rule:evenodd;fill:#FDCF72;}
	.st7{fill-rule:evenodd;clip-rule:evenodd;fill:#F9C357;}
	.st8{fill-rule:evenodd;clip-rule:evenodd;fill:#E4DEDB;}
	.st9{fill-rule:evenodd;clip-rule:evenodd;fill:#FEFEFE;}
</style>
<title>static_website</title>
<g>
	<path class="st0" d="M223.3,305.2c0,4.6,2.4,3.7,4.2,8.8c6,16.7-3.5,31.9-3.9,33.2c3.1,1.5,8.9,0.8,12.7,0.8
		c-1.2,5.3-14.7,25.7-18.5,31.8c-3.5,5.7-6.6,10-9.5,16c-5.3,10.6-2.1,14.7-1.6,20.6c-3-0.2-2.6-0.7-5.3-1.3
		c-6.3-1.3-12.7-1.1-18.5-0.3c-25.4,3.5-52.2,34.6-26.4,34.6c-7.4,11.2-19.7,13-17.2,46.1c0.7,9.5,8.7,21.4,15.7,27.9
		c1.1,1,2.7,1.5,4.8,1.8h15.7h0.7h0.7h0.7h0.7h0.7h0.7h0.7h0.7h0.7h0.7h0.7h0.7h0.7h0.7h0.7h0.7h0.7h0.7h0.7h0.7h0.7h0.7h0.7h0.7
		h0.7h0.7h0.7h0.7h0.7h0.7h0.7h0.7h0.7h0.7h0.7h0.7h0.7h0.7h0.7h0.7h0.7h0.7h0.7h0.7h0.7h0.7h0.7h0.7h0.7h0.7h0.7h0.7h0.7h0.7h0.7
		h0.7h0.7h0.7h0.7h0.7h0.7h0.7h0.7h0.7c2.3-3.8,7.3-5.7,12.3-15.5c3.3-6.5,5.8-14.2,6-23.1c10-0.1,12.4-1.4,11.4-11.6
		c3.3,7.8,13.7,16.3,24,19.1c10.9,2.9,115.3,1.5,131.1,1.4l-0.7,29.6h108.5c0-6.8-1.2-8.7,0.5-11.8c1.2-2.1,1.7-2.4,2.8-4.6
		c0.8-1.7,1.2-3.3,1.9-5.4c3.4-10.2,3-13.6,3-26.7c3,1.5,19.3,1.1,17.7-11c-0.8-5.7-3.9-22.1-6.2-25.7c-1.5-2.2-2.7-5.9-4-8.7
		c-1.5-3.1-2.3-4.2-4.2-7.3l-9.5-14c-2.3-3.9-9.3-9.1-16.1-9.1c0-16.5-4.2-23.3,1.5-38.8c1.7-4.6,3.4-12.6,3.4-18
		c0-14.3-0.8-9.5-1.7-20.6c-11.8,2.8-18.9,5.7-32.1,5.8c-5.5,0-7.3,0.9-12.4,0.9c-5,0-6.4-0.8-11.5-0.9c-8.1-0.1-14.4-1.4-21.9-3.6
		c-3.1-0.9-7.7-2.8-10.2-3c0,7.9-1.8,13.3-2.5,20.6l-2.5,20.6c-20.9,0-44.5-1-65.1,0c-7.5,0.4-15.5,6.6-16.4,15.8
		c-0.9,9,4.7,17.2,15.6,17.2c2.2,9.4,7.2,6.4,10.2,29.3c1.4,10.5-3.5,21.3-10.4,28.2c-8.8,8.7-15.5,7.6-31.9,7.6
		c-33.8,0-41,4.4-54.5-34.4c-2.3-6.4-5.2-17.2-5.6-24.1c-0.6-10.8,3.7-22.3,7.1-32.5c1.8-5.4,3.1-9.3,4.8-15
		c1.5-5.2,3.5-10.3,4.6-15.2c1.9,0.9,4.4,1.3,6.8,2.2c2.7,1.1,3.5,1.5,6.8,2.2c5.7,1.4,11.1,2.1,11.9-4.6
		c1.3-11.6-20.4-7.8-22.2-14.7c5,0,6.4,0.2,9.7-1.8c13.6-8.3,9.3-26.9-2-29.9c-4.3-1.2-6.8,0.6-9.4,2c-4.9,2.5-8.9,8.6-9,15.7
		c-3.6-1-6.2-4.2-16.1-6.1c-4.8-1-12.4-2-17.6-1.3l-1.3,0.3c-0.2,0-0.4,0.2-0.6,0.2C223.7,305,223.4,305.1,223.3,305.2L223.3,305.2z
		"/>
	<path class="st0" d="M207.3,291.2c0.2-4.7-0.4-9.2-1.8-13.5c-2.2-7.3-2.2-6.4-8.3-8l-4-17.1c-0.5-1.1-0.4-1.2-1.4-2.5
		c-16.4,0-30.1,1.7-46.9,1.7c-2.7-11.8-3.5-34-9.1-51.8c-0.6-1.7-1.2-3.3-1.8-5.5c-0.7-2.3-0.8-3.5-1.7-5.8l-5-10.6
		c-2.6-7.7,3.5-10.4-8.6-22.2c-3.8-3.3-9.3-6.4-14.9-9.4c-5-2.7-11.4-5.2-15.7-8.3c-11.8-7.3-28.8-9.5-39.9,3.5
		c-6.6,7.7-9.9,35.7,5.5,39.3c-6.1,12.8-7.4,58.3-9.2,74.9c-1.3,12-3,49.3-1.2,59.9c1.2,6.8,4.2,9.6,8.7,12.7
		c0,4.8-0.9,7.5-0.9,13.2c0,8.5,2.1,4.7,3.5,10.5c0.9,3.6,0.9,8,1.9,12.2c0.9,3.9,2.6,6.6,4.5,9.5c3.2,5.2,1.5,5.7,1,11.4
		c-0.4,5.1-0.6,8-1,13.1l-1.9,26.9c-0.7,4.5-1,8.2-1.4,12.6c-0.4,3.9-1.2,8.3-1.5,12.5c-0.7,8.4-3.3,15.8-4.7,23.2l-4.3,37.7
		c-0.3,5.4-0.8,9.1-0.8,14h76.5l11.5-92.3c1.1-15.3,2.6-18.8,2.5-36.2c0-12.6,1.6-18.9,0.8-37.9c-0.5-11.5,0.6-3.5,2.3-9.2
		c1.2-3.9,0-9.4-0.6-12.2c11.1-7.4,7.4-17.6,7.4-30.5c11.1,0,23.4-1.1,33.4-2.8c14.7-2.6,5.8-6.7,20.1-7.1c4.6-0.1,4.6-0.7,7.4-2.5
		L207.3,291.2z"/>
	<path class="st1" d="M208.3,29.3v68.4c0,6.4,3.9,11.4,7.6,14.6c4.8,4.1,9.4,4.4,17.9,4.4l79,0c12.6,0,7.6-0.1,15.4,6.8
		c2.5,2.1,3.7,2.8,6.2,5.3c5.4,5.5,8.2,10,12.9,10.1v-22.2c8.1-1.9,16.4-8.5,16.4-18.2v-70c0-8.9-9.9-18.1-18.9-18.1h-116
		C218.1,10.3,208.3,18.9,208.3,29.3L208.3,29.3z"/>
	<path class="st1" d="M502.1,295c1.4,3.5,0,4.2,0,8.6c8,0,74.6,0.8,79.2-0.7c5.8-1.9,11.4-7.9,13.1-14c0.3-1,0.5-5.1,0.6-11v-96
		l-84.1,0.2c0.3,20.4,0,40.9,0,61.3c0,10.1,0,20.3-0.1,30.5C510.9,281.6,512.7,298.1,502.1,295L502.1,295z"/>
	<path class="st2" d="M265.8,163.6l-3.9,1.5l62.8,15.7c-3.4,1.9-21.6,4.7-26.9,5.3c-8.4,1-67.6-16.5-77.5-15.6l0,68.8
		c4.6-0.8,11-3.1,14.8-0.8c1.5,4.8-1.8,6.1-5.6,7.9c-3.7,1.8-6.8,3.4-9.6,5l0.3,6.5c5.2-1.7,8.1-4.1,13.2-2.4
		c0.6,5.5-0.8,2.9-4.2,6.9c5,1.7,20.1-4.1,26.6-1.2c1,0.8,2.2,7.7,5.4,10.2c1.5,0.7,26.5,8.4,29.6,7.4l4.9,1
		c0.4-13-1.1-85.7,0.8-91.1l30.1-6l0.1,18.9c3.5,0.3,14.6-1.7,18-3.6c0.7-4.1-1.3-14.2,1.1-16.7c1.6-1.9,27-6.4,30.5-6.6
		c0-3.7,0.2-1.8-0.8-1.4c-8.2-0.7-17.4,1.9-25.9,3.5c-9.6,1.7-16.4-1-25.8-2.9c-8.9-1.9-43.2-10.7-48.7-10.5
		C269.8,161.5,269.9,163.4,265.8,163.6L265.8,163.6z"/>
	<path class="st3" d="M457.8,158.7c-1.7,0.7-6.8,5-7.9,6.2c-2.3,2.3-5,5.1-9.1,5.6c-1.2-3.6-4.4-7.8-6.7-11.4
		c-1.9,3.1-1.7,5.6-5.2,7.3c-2-1.6-3.5-4.4-3.6-7.1c-8.1,10.2-9.9,28.6-11.4,43.1c-0.8,7.8-0.7,18.2-0.8,26.4
		c-0.2,25.4-0.8,14.5-4.9,22.4l24.1-3.7l12.3-25.3l34.5,15.5c-1.2,3.1-3.5,6.2-4,9.4c6.1,8.5,11.8,15.7,19.1,22.6
		c2.1,1.9,5.3,4.7,7.9,6.5c0.5-19.9,1.3-39.8,1.4-59.6c0.2-16,2.8-44.2-5.7-55.1c-13.1-16.9-28.3-4.5-35.5,8.8
		c-5.3,9.8-13.1,36.2-17.9,42.2C442.8,189.6,449.1,174.9,457.8,158.7L457.8,158.7z"/>
	<path class="st4" d="M412.2,175.1c-3.5,14.2-0.9,29.2-2.1,43.3c-2.2-1.2-4.2-1.9-6.5-3.2c-2.3-1.3-4.7-3.1-6.8-3.9
		c-3.1,3.7-4.2,6.6-6.8,10.6c-3.3,5.2-3,6.2-10.7,6.8l-3,1.7l0,24.8c-24,0.7-11.9,1.3-26.3-4.3c-2.8-1.1-34.8-8.8-25.8,1
		c2.8,3.1,6.1,2.3,10.8,8.2c-1.1,3.2-3.6,3.8-6.2,6.2c-2.9,2.7-0.9,1.8-6.3,6c-9.9,7.7-13.3,4.9-15.8,8.4c5.2,5.5,17.4,6.1,25,6.6
		c8.8,0.6,17.1-4,23.7-8.4c6.2-4.2,10.7-1.1,19.9-0.6c2.7,0.1,5.4-0.2,8.1,0.1c3.8,0.4,10.3,1.2,14.2,1.4c5.7,0.5,9.7,1.2,15.6,0.8
		c7.7,1,22,2.5,29.6,1.7c9.5-0.6,16.4-10.4,21-16.8c2.1-2.9,0.4-1.6,3.6-2.9l-0.8-2.8c2.6-2.6,4.4-7,6.1-10.1
		c1.4-2.5,0.3-1.4,2.4-2.7c0.4-3.2,2.8-6.2,4-9.4L444.6,222l-12.3,25.3l-24.1,3.7c4.2-7.9,4.7,3,4.9-22.4c0.1-8.2,0-18.5,0.8-26.4
		c1.5-14.5,3.3-32.9,11.4-43.1c0.8-3.5-0.3-1.5,1.1-2.2c-1.7-3,2.3-2.5-2.5-2.5c-2,2.2-2.5,1.9-4.3,3.9c-1.5,1.6-2.1,3.1-3.3,5
		C414.4,166.5,412.7,170.5,412.2,175.1L412.2,175.1z"/>
	<path class="st1" d="M290.6,278.9c1.4,1.8,0.4,1.2,2.9,2.1c1.7,0.6,2.3,0.4,4.2,0.2c2.9-0.4,4.8-0.6,8.9-0.6
		c2.5-3.5,6-0.7,15.8-8.4c5.4-4.2,3.3-3.3,6.3-6c2.5-2.4,5.1-3,6.2-6.2c-4.7-5.8-8-5.1-10.8-8.2c-9-9.8,23-2.1,25.8-1
		c14.4,5.6,2.3,5,26.3,4.3l0-24.8l3-1.7h-3.1v-53.8c-3.5,0.3-29,4.7-30.5,6.6c-2.3,2.5-0.4,12.6-1.1,16.7c-3.4,1.9-14.5,3.9-18,3.6
		l-0.1-18.9l-30.1,6c-1.9,5.4-0.5,78.1-0.8,91.1L290.6,278.9z"/>
	<path class="st3" d="M219.3,525.2h184.1l0.7-29.6c-15.8,0-120.2,1.5-131.1-1.4c-10.3-2.8-20.7-11.3-24-19.1
		c1,10.2-1.4,11.5-11.4,11.6c-0.2,8.9-2.7,16.6-6,23.1C226.6,519.5,221.7,521.4,219.3,525.2L219.3,525.2z"/>
	<path class="st0" d="M88.2,132.8c12.3,4.8,16.1-6.7,21.5-11.2l-1.2-1.4c-12-12.7,0.3-24.3,8.1-17.2c3.9,3.6,0.8,6.6,7.2,7
		c7-12.9-1-26.1,12-26.9c4.4-0.3,8.9-0.2,13.2-1c6.4-1.5,10.4-10,6.6-16.5c-3-5.1-12.9-4.6-20.1-6.2c-8.8-2.1-12.6-2.9-23.6-2.8
		c-7.1,0.1-17,2.8-21.5,5.6c-3,1.9-10,10.4-12.7,13.6c-3.9,4.6-6.9,11.3-5.9,20.3c1.7,15.8,11.8,25.6,14.4,31.8L88.2,132.8z"/>
	<path class="st0" d="M457.8,158.7c-8.7,16.2-15,30.9-13.2,53.5c4.8-6,12.6-32.4,17.9-42.2c7.2-13.3,22.3-25.7,35.5-8.8
		c8.5,10.9,5.8,39.2,5.7,55.1c-0.2,19.9-0.9,39.8-1.4,59.6c-2.6-1.8-5.8-4.6-7.9-6.5c-7.3-6.8-13-14.1-19.1-22.6
		c-2.1,1.3-1,0.2-2.4,2.7c-1.7,3.1-3.5,7.5-6.1,10.1l0.8,2.8c0.5,4.6,19.2,22.4,23.8,26.5c2.4,2.2,7.6,5.9,10.9,6.1
		c10.6,3.1,8.8-13.4,8.8-21.1c0-10.2,0-20.3,0.1-30.5c0-20.4,0.2-41,0-61.3l84.1-0.2v-5c-11.6-2.7-67.6,1.4-84.2-0.8
		c-4.3-22.2-8.1-17.2-15-25.8c-2.9-2.9-11.9-7.8-16.8-8.3C471.6,142.3,461.5,154.8,457.8,158.7L457.8,158.7z"/>
	<path class="st1" d="M495.8,150.4c6.9,8.6,10.7,3.5,15,25.8c16.6,2.2,72.6-1.9,84.2,0.8v-13.7c-0.5-7.9-2.7-15.3-11-19.2
		c-2.5-1.2-4.1-1.9-7-2c-9.8-0.5-65.9-0.7-70.5,1.2C498,146.6,499.9,149,495.8,150.4L495.8,150.4z"/>
	<path class="st1" d="M410.7,78.3c4.8-1.9,32.4,1.9,39.3,2.9c6.8,1,10.6,2.6,16.8,4.8c3.8,1.3,13.7,4,15.3,6.7
		c3.1-1.9,3.9-10.5,3.4-14.7c-4.1-39.4-50.6-47.3-68.8-23c-2.2,2.9-2,3.2-3.5,6.4c-7,0-22.5,0.4-28,1.6c0,8.7,4.1,9.4,17.1,12.6
		C404.8,76.2,408.5,76.6,410.7,78.3L410.7,78.3z"/>
	<path class="st4" d="M410.7,82.6c0,9.5-0.1,10.8-4.7,16.1c-5.5,6.4-2.5,9.6,4.7,11.3c0,7.8,2.8,18,7.9,20.9
		c10.5,6,14.3-8.3,14.3,15.3h-0.8c2.6,2.5,1.8,5.3,1.6,11.5l29.4-21.7c3-2,2.8-1,3.1-3.8l0.4-9.2c-3.8-1.9-5.2-6.6-12.3-12.6
		c2.1-1.5,4.6-1.7,6.8-6.9c1.7-4.1,1.4-8.9-1.4-11.3c-5.9-4.9-10.1-0.1-12.7,4.8c-6.5,12.4-8.3-13.5-10.2-14.6
		C428.8,80.9,418.2,83.6,410.7,82.6L410.7,82.6z"/>
	<path class="st0" d="M281.1,28.4c-16.7,4.5-24.5,19.9-16.3,39.1c4.8,11.3,11,19.6,18,29c2.9,3.9,4.1,7.7,9.1,1.6
		c9.5-11.6,28.2-36.3,20.2-54.8C307.2,32.1,294.6,24.7,281.1,28.4L281.1,28.4z"/>
	<path class="st5" d="M88.2,132.8L88,138c4.3,3.2,10.8,5.6,15.7,8.3c5.7,3,11.1,6.1,14.9,9.4c1-3.5,3.8-11,4.1-14.4
		c5.1,2.5,14.8,4.2,19.9,0.2c3.9-3.1,6.4-11.9,6.4-19.1c4.8-0.4,7.3-2.2,7.4-7.4c-2.9-4.3-7.3-5.8-7.4-13.1
		c-0.3-16.4-0.8-8.5-1.6-19l1.6-0.8c-4.3,0.8-8.8,0.8-13.2,1c-13.1,0.8-5.1,13.9-12,26.9c-6.4-0.4-3.3-3.4-7.2-7
		c-7.8-7.1-20.1,4.5-8.1,17.2l1.2,1.4C104.3,126.1,100.5,137.6,88.2,132.8L88.2,132.8z"/>
	<path class="st5" d="M193.2,252.5l4,17.1c6.1,1.6,6.1,0.8,8.3,8c1.4,4.4,2,8.8,1.8,13.5c13.9,0,17.6,7.4,42.7-9.4
		c6.2-4.1,8.4-4.9,8.5-10.4h2.5c-3.2-2.5-4.4-9.4-5.4-10.2c-6.4-2.9-21.6,2.9-26.6,1.2c3.5-4,4.8-1.4,4.2-6.9
		c-5.1-1.7-8,0.6-13.2,2.4l-0.3-6.5c2.8-1.5,5.9-3.2,9.6-5c3.8-1.8,7.1-3.1,5.6-7.9c-3.8-2.3-10.2,0-14.8,0.8l0-68.8
		c-1.2,1-1.3-1.9-1.2,7l0,61.8C208,241.9,202.4,248.6,193.2,252.5L193.2,252.5z"/>
	<path class="st3" d="M209.2,469.3c-14.5,18.8-3.4,10.6-6.9,22.5c-2.5,8.3-12.7,12.9-21.5,7.5c-7.3-4.4-9-16.5-2-22.7
		c4.3-3.8,10.7,0.2,16.8-16.7c-35.5-6-46.7,36.1-21.9,52.2c24.1,15.6,54.2-14.1,38.7-39.6L209.2,469.3z"/>
	<path class="st0" d="M410.7,82.6c7.4,1,18.1-1.6,26.1-0.2c2,1.2,3.8,27,10.2,14.6c2.6-4.9,6.8-9.7,12.7-4.8
		c2.9,2.4,3.1,7.3,1.4,11.3c-2.1,5.2-4.6,5.4-6.8,6.9c7,6,8.5,10.7,12.3,12.6c1.5-2.5,2.8-4.3,4.8-6.6c1.9-2.3,3.1-4.2,4.9-6.6
		c2.5-3.4,6.2-11.6,5.8-17.1c-1.6-2.7-11.5-5.4-15.3-6.7c-6.1-2.1-10-3.8-16.8-4.8c-6.9-1.1-34.5-4.8-39.3-2.9V82.6z"/>
	<path class="st6" d="M220.2,170.5c9.9-0.8,69.1,16.7,77.5,15.6c5.4-0.6,23.6-3.4,26.9-5.3l-62.8-15.7l3.9-1.5c-6,0-30.7,3.8-40.9,5
		C221.4,169,221.2,169.3,220.2,170.5L220.2,170.5z"/>
	<path class="st7" d="M432.1,146.2c-1.1,2.7,0,0.8-1.8,3.1c-0.3,0.4-1.5,1.6-2.1,2.1c-1.9,1.9-1.8,1.9-4.3,3.1
		c4.8,0,0.8-0.6,2.5,2.5c-1.4,0.7-0.4-1.3-1.1,2.2c0.1,2.7,1.5,5.6,3.6,7.1c3.6-1.7,3.3-4.2,5.2-7.3c2.3,3.6,5.5,7.8,6.7,11.4
		c4.1-0.5,6.8-3.3,9.1-5.6c1.2-1.2,6.3-5.5,7.9-6.2c3.8-3.9,13.9-16.4,21.2-16.6c-1.6-1.4-4.5-3.3-6-4.7c-4.1-4.2-0.1-2.7-6.8-5.1
		c-0.3,2.8-0.2,1.8-3.1,3.8l-29.4,21.7C433.9,151.5,434.7,148.8,432.1,146.2L432.1,146.2z"/>
	<path class="st6" d="M275,163.6c5.5-0.2,39.8,8.6,48.7,10.5c9.4,1.9,16.2,4.6,25.8,2.9c8.5-1.5,17.7-4.1,25.9-3.5
		c-1.9-2.5,0.4-0.5-2.5-1.6c-0.3-0.1-2.7-0.6-2.8-0.6l-44.4-7.3c-15-2.3-23.4-5.3-38-3.3C284.3,161.1,277.2,160.7,275,163.6
		L275,163.6z"/>
	<path class="st1" d="M223.7,347.3c0.4-1.3,9.9-16.5,3.9-33.2c-1.8-5.1-4.3-4.2-4.2-8.8c-3.6,0.9-3.7,2.5-6.1,8.8
		c-3.3,8.7-5.2,22.8,2.1,29.6C221.8,346,221.7,344.3,223.7,347.3L223.7,347.3z"/>
	<path class="st3" d="M472.1,515.8l-3-18.1l-25.5-0.1c1.2,5.5,5.8,11.2,9.7,13.7C458.5,514.8,464.9,516.5,472.1,515.8L472.1,515.8z"
		/>
	<path class="st1" d="M285.6,43.7c-14.4,2.9-9.7,24.3,4.9,21.1C302.7,62,299.9,40.7,285.6,43.7L285.6,43.7z"/>
	<path class="st8" d="M396.8,211.3c2.1,0.8,4.5,2.6,6.8,3.9c2.3,1.3,4.2,2,6.5,3.2c1.3-14.1-1.3-29.1,2.1-43.3
		c-1.9,2.8-2.5,5.1-3.9,8.2l-14,25.5C395.1,209.7,395.9,210.5,396.8,211.3L396.8,211.3z"/>
	<path class="st2" d="M514,409.9l9.5,14c1.9,3.1,2.7,4.2,4.2,7.3c1.4,2.8,2.5,6.5,4,8.7c1-4.6,0.3-1.2,3.1-3.9
		c3.6-3.6-0.5-10.1-3.4-15c-1.1-1.9-1.9-2.7-3.1-4.2c-2.2-2.7-4.2-5.8-7.8-7.1C517.9,408.6,516.3,409.4,514,409.9L514,409.9z"/>
	<path class="st8" d="M413.2,322.6v-2.5h-0.8C412.4,324.4,412.4,321.3,413.2,322.6L413.2,322.6z"/>
	<path class="st9" d="M500.6,323.7c0.3-0.3,0.4-0.7,0.4-1.3c0.1-0.6,0.1-1.3,0.4-4.5c0.3-3.2,0.8-8.9,1-11.7
		c0.3-2.9,0.3-2.9,0.3-3.8c0-0.9,0-2.8,0-4.2s0-2.3,0-2.7c0-0.4,0-0.4,0-0.4s0,0-1.2-0.7c-1.2-0.7-3.5-2.1-6.9-4.6
		c-3.4-2.5-7.7-6.2-12-10.4c-4.3-4.2-8.5-8.9-11.1-12.3c-2.6-3.4-3.7-5.6-4.2-6.6c-0.5-1.1-0.5-1.1-0.5-1.1l0,0c0,0,0,0-1.9,2.5
		c-1.9,2.5-5.6,7.4-8.2,10.4c-2.6,3.1-4,4.3-5.8,5.4c-1.8,1.1-3.9,2.2-5.7,2.9c-1.7,0.7-3.1,1-5.2,1.2c-2.1,0.2-4.8,0.2-7.6,0.1
		c-2.7,0-5.4-0.2-7.5-0.4c-2.1-0.1-3.6-0.2-4.8-0.3c-1.2-0.1-2-0.2-2.5-0.2c-0.4,0-0.4,0-0.4,0s0,0-0.7,7c-0.7,7-2.1,21.1-2.7,28.1
		c-0.7,7-0.7,7-0.7,7s0,0,3.9,1.2c3.9,1.2,11.5,3.5,18.3,4.7c6.8,1.2,12.6,1.3,16.9,1.3c4.3,0,7.1,0,11.6-0.3
		c4.5-0.2,10.8-0.6,16.5-1.5c5.8-0.9,11-2.3,14-3c3-0.8,3.7-1,4.4-1.1C499.6,324.1,500.3,323.9,500.6,323.7L500.6,323.7z"/>
	<path class="st8" d="M442.8,282.1c-7,0.8-17.9-0.2-25-1.2l-0.8,2.9l-1.5,13.2l14.3-6.7C433.1,288.8,441,284.9,442.8,282.1
		L442.8,282.1z"/>
</g>
</svg>
