<?xml version="1.0" encoding="utf-8"?>
<!-- Generator: Adobe Illustrator 23.0.2, SVG Export Plug-In . SVG Version: 6.00 Build 0)  -->
<svg version="1.1" id="bebdbc02-5f56-4bd5-9ad9-bce5f07a2c3e"
	 xmlns="http://www.w3.org/2000/svg" xmlns:xlink="http://www.w3.org/1999/xlink" x="0px" y="0px" viewBox="0 0 933.4 783.9"
	 style="enable-background:new 0 0 933.4 783.9;" xml:space="preserve">
<style type="text/css">
	.st0{fill:#3F3D56;}
	.st1{fill:#F2F2F2;}
	.st2{fill:#FDC134;}
	.st3{fill:#FF6584;}
	.st4{fill:#CCCCCC;}
	.st5{opacity:0.1;enable-background:new    ;}
	.st6{fill:#2F2E41;}
	.st7{fill:#A0616A;}
	.st8{fill:#FFFDFA;}
</style>
<title>lists</title>
<path class="st0" d="M493.9,875c0,17.7-109.5,32.1-244.7,32.2h-1.4c-66,0-125.9-3.4-170.1-8.9c-1.9-0.2-3.7-0.5-5.6-0.7
	c-7.5-1-14.6-2.1-20.9-3.1C20.3,889,2,882.4,2,875.2c0-5.9,12-11.3,32.9-16.1c11.1-2.5,24.7-4.7,40.2-6.8c2.9-0.3,5.8-0.7,8.8-1
	c43.5-5.1,101-8.2,164-8.2c12.3,0,24.3,0.1,36.1,0.3C402.7,845.6,493.9,859,493.9,875z"/>
<rect x="568" y="481.6" class="st1" width="364.3" height="186.7"/>
<rect x="115" y="1.2" class="st1" width="364.3" height="186.7"/>
<path class="st2" d="M480.4,189H113.8V0h366.6V189z M116.1,186.7h362V2.3h-362V186.7z"/>
<rect x="568" y="1.2" class="st1" width="364.3" height="186.7"/>
<rect x="115" y="241.3" class="st1" width="364.3" height="186.7"/>
<rect x="568" y="241.3" class="st1" width="364.3" height="186.7"/>
<circle class="st3" cx="264.8" cy="295.8" r="40.3"/>
<polygon class="st0" points="696.8,550.6 692.1,546.8 718.6,523.2 785.6,523.2 785.6,544 742.1,573.2 "/>
<polygon class="st4" points="797.8,536.5 797.8,523.7 788.9,523.7 788.9,526.8 785.6,523.2 763.9,546.8 755.4,552.5 742.2,648.8 
	762.1,668.6 808.2,668.6 808.2,547.8 "/>
<rect x="692.1" y="546.8" class="st1" width="71.8" height="121.7"/>
<rect x="720" y="638.8" class="st4" width="13.2" height="29.7"/>
<polygon class="st0" points="705.8,647.4 705.8,642.7 700.2,642.7 700.2,647.4 705.3,647.4 "/>
<polygon class="st0" points="705.3,651.1 700.2,651.1 700.2,655.8 705.8,655.8 705.8,651.1 "/>
<rect x="709.6" y="642.7" class="st0" width="5.7" height="4.7"/>
<rect x="709.6" y="651.1" class="st0" width="5.7" height="4.7"/>
<polygon class="st0" points="744.5,647.4 744.5,642.7 738.9,642.7 738.9,647.4 744.1,647.4 "/>
<polygon class="st0" points="744.1,651.1 738.9,651.1 738.9,655.8 744.5,655.8 744.5,651.1 "/>
<rect x="748.3" y="642.7" class="st0" width="5.7" height="4.7"/>
<rect x="748.3" y="651.1" class="st0" width="5.7" height="4.7"/>
<polygon class="st0" points="784.1,553 784.1,548.2 778.6,548.2 778.6,553 783.6,553 "/>
<polygon class="st0" points="783.6,556.8 778.6,556.8 778.6,561.4 784.1,561.4 784.1,556.8 "/>
<rect x="787.9" y="548.2" class="st0" width="5.7" height="4.7"/>
<rect x="787.9" y="556.8" class="st0" width="5.7" height="4.7"/>
<polygon class="st0" points="784.1,579.3 784.1,574.7 778.6,574.7 778.6,579.3 783.6,579.3 "/>
<polygon class="st0" points="783.6,583.2 778.6,583.2 778.6,587.9 784.1,587.9 784.1,583.2 "/>
<rect x="787.9" y="574.7" class="st0" width="5.7" height="4.7"/>
<rect x="787.9" y="583.2" class="st0" width="5.7" height="4.7"/>
<polygon class="st0" points="784.1,605.8 784.1,601.1 778.6,601.1 778.6,605.8 783.6,605.8 "/>
<polygon class="st0" points="783.6,609.6 778.6,609.6 778.6,614.3 784.1,614.3 784.1,609.6 "/>
<rect x="787.9" y="601.1" class="st0" width="5.7" height="4.7"/>
<rect x="787.9" y="609.6" class="st0" width="5.7" height="4.7"/>
<polygon class="st0" points="784.1,632.2 784.1,627.5 778.6,627.5 778.6,632.2 783.6,632.2 "/>
<polygon class="st0" points="783.6,636.1 778.6,636.1 778.6,640.8 784.1,640.8 784.1,636.1 "/>
<rect x="787.9" y="627.5" class="st0" width="5.7" height="4.7"/>
<rect x="787.9" y="636.1" class="st0" width="5.7" height="4.7"/>
<rect x="700.2" y="553" class="st0" width="54.7" height="11.3"/>
<rect x="700.2" y="575.6" class="st0" width="54.7" height="11.3"/>
<rect x="700.2" y="598.3" class="st0" width="54.7" height="11.3"/>
<rect x="700.2" y="620.9" class="st0" width="54.7" height="11.3"/>
<path class="st0" d="M406.4,428H404c0-61.6-49.9-111.6-111.6-111.6c-61.6,0-111.6,49.9-111.6,111.6l0,0h-2.3
	c0-62.8,51-113.9,113.9-113.8C355.4,314.2,406.4,365.1,406.4,428z"/>
<rect x="235.5" y="313.6" transform="matrix(1 -1.879994e-03 1.879994e-03 1 -0.6972 0.4462)" class="st0" width="2.9" height="114.9"/>
<path class="st2" d="M265.2,328.2c0.2,40.2-28,72.9-28,72.9s-28.6-32.4-28.9-72.6c-0.2-40.2,28-72.9,28-72.9
	S264.9,288.1,265.2,328.2z"/>
<path class="st5" d="M265.2,328.2c0.2,40.2-28,72.9-28,72.9s-28.6-32.4-28.9-72.6c-0.2-40.2,28-72.9,28-72.9
	S264.9,288.1,265.2,328.2z"/>
<rect x="197.7" y="313.6" transform="matrix(1 -1.879994e-03 1.879994e-03 1 -0.6973 0.3751)" class="st0" width="2.9" height="114.9"/>
<path class="st2" d="M227.4,328.3c0.2,40.2-28,72.9-28,72.9s-28.6-32.4-28.9-72.6c-0.2-40.2,28-72.9,28-72.9
	S227.1,288.1,227.4,328.3z"/>
<rect x="391.9" y="337.8" class="st0" width="2.3" height="91"/>
<circle class="st0" cx="745" cy="337.5" r="79.2"/>
<polygon class="st2" points="753,308.1 753,341.2 704.7,341.2 695.8,351.8 696.8,341.2 692.6,341.2 692.6,308.1 "/>
<rect x="731.2" y="319.4" class="st5" width="21.8" height="21.8"/>
<polygon class="st2" points="736,324.3 796.4,324.3 796.4,357.4 792.1,357.4 793,368 784.1,357.4 736,357.4 "/>
<ellipse class="st5" cx="696.3" cy="355.9" rx="13.3" ry="1.3"/>
<ellipse class="st5" cx="793" cy="373.2" rx="15" ry="1.5"/>
<path class="st0" d="M789.9,24.3h-52.3c-5.2,0-9.7,3.6-10.9,8.7l-26.4,117.2c-1,4.9,2,9.6,6.8,10.8c0.5,0.1,1,0.2,1.5,0.2l53.8,2.7
	c5.9,0.3,11.2-3.9,12.3-9.7l15-82.9l1.2,0.3l2.9-15.7l-1.2-0.2l4.2-23.1c0.7-3.7-1.9-7.3-5.6-8C790.8,24.4,790.4,24.3,789.9,24.3z"
	/>
<path class="st2" d="M744.5,26.8h-6.1c-3.6,0-6.7,2.5-7.5,6l-25.3,116.3c-0.6,2.5,1,5.1,3.6,5.7c0.2,0,0.5,0.1,0.7,0.1l53.6,3.5
	c3.1,0.2,5.9-2,6.5-5.1l21.6-120.2c0.6-2.9-1.4-5.8-4.4-6.2c-0.3,0-0.6-0.1-0.9-0.1h-5.8c-1.2,0-2.2,0.8-2.4,1.9l0,0
	c-0.2,0.9-1.2,1.6-2.2,1.6h-27.5C746.4,30.4,744.6,28.8,744.5,26.8L744.5,26.8z"/>
<circle class="st2" cx="295.1" cy="83.1" r="75.8"/>
<path class="st2" d="M933.4,669.4H566.9v-189h366.5V669.4z M569.2,667.1h362V482.6h-362V667.1z"/>
<path class="st2" d="M931.2,430.3H564.7v-189h366.5V430.3z M566.9,428h362V243.6h-362V428z"/>
<path class="st6" d="M197.7,850.6c0,0-18.2-2-22.2,0c-4.1,2-10.1,16.2,0,24.2c10.1,8.1,36.3,20.1,44.4,20.1c8.1,0,16.2-4.1,16.2-4.1
	l-4.1-34.4L197.7,850.6z"/>
<path class="st6" d="M278.5,860.7l2,28.2c0,0,26.3,4.1,28.2,0c2-4.1,22.2-14.1,24.2-16.2s4.1-24.2-8.1-26.3
	c-12.2-2-16.2,4.1-16.2,4.1L278.5,860.7z"/>
<path class="st2" d="M478.7,428H112.2V239h366.5V428z M114.4,425.7h362V241.3h-362V425.7z"/>
<path class="st6" d="M181.6,513.4l-18.2,2c0,0-8.1,36.3,0,84.8c8.1,48.5,18.2,97,18.2,97s8.1,157.5,12.2,159.5
	c4.1,2,40.4,14.1,42.4,2c2-12.2,2-288.7,2-288.7l28.2,133.3c0,0,4.1,167.6,12.2,167.6c8.1,0,34.4-2,34.4-16.2
	c0-14.2,6-199.9,6-199.9s-2-137.3-10.1-141.3C300.7,509.3,181.6,513.4,181.6,513.4z"/>
<circle class="st7" cx="215.9" cy="196.4" r="36.3"/>
<path class="st7" d="M197.7,218.6l6.1,38.3l44.4-8.1c0,0-2-38.4-2-42.4C246.3,202.5,197.7,218.6,197.7,218.6z"/>
<path class="st6" d="M228.6,152.3l-0.3-2.9c-2.4,0-5,0.3-7.3,1.2c-0.2-1.7-0.1-3.6,0.5-5.2c-2.4,0.6-4.6,1.6-6.7,2.9l-1.5-5.3
	l-20.1,10c-7.3,3.6-14.9,7.5-19,14.5c-4.6,7.8-3.8,17.7-0.7,26.2c3.1,8.4,8.4,15.9,12.6,23.8c1.6,3.5,3.5,6.7,5.8,9.7
	c7.6,9.5,22.5,11.5,33.2,5.7c3.9-2.1,7.5-5.3,9.1-9.5c0.9-2.5,1.2-5.2,1.9-7.9c1.3-5.4,2.9-16.7,7.3-20c2-1.5,5.8,3.5,7.4,1.6
	c4.2-4.7,3.2-12.2,0.7-17.9c-2.4-5.8-5.3-11.5-8.6-16.8C241.2,160.2,228.6,152,228.6,152.3z"/>
<path class="st7" d="M113.6,346.3c0,0-29.2,60.4-15,81s84.3,69.9,84.3,69.9s52,6.5,49.2-18.3c-2.8-24.8-36.6-5.8-36.6-5.8
	l-53.7-57.5l15.3-57.4L113.6,346.3z"/>
<path class="st0" d="M163.6,297.5l-24.5-0.2c0,0-14.8,22.8-19.4,31.7c-4.7,8.9-13.5,30.8-13.5,30.8l46.6,23.3l26.5-39L163.6,297.5z"
	/>
<polygon class="st8" points="275,122.6 247.8,86.7 253.6,82.3 275.4,111.1 336.6,41.1 341.9,45.8 "/>
<path class="st7" d="M332.5,275.7c0,0,49.6-40.3,45.1-62.3S330,126.5,330,126.5s-32.9-45.4-40.2-23.8c-7.3,21.6,19.6,39.5,19.6,39.5
	l25.3,66.3l-36.1,42.5L332.5,275.7z"/>
<path class="st0" d="M195.7,256.9c0,0,50.5-12.2,56.6-8.1c6.1,4.1,36.3,8.1,36.3,8.1l34.4,52.5L313,376.1c0,0-2,107.1,2,125.2
	c4.1,18.2,26.3,20.1-20.1,24.2c-46.4,4.1-54.5-2-86.8,6c-32.3,8-58.6-4.1-50.5-12.2c8.1-8.1,22.2-137.3,6-149.4
	c-16.2-12.2-22.2-74.8-22.2-74.8S195.7,267.1,195.7,256.9z"/>
<path class="st0" d="M275.5,256.5l8.7-5.4l17.4-10.9c0,0,46.3,27,42.6,33.2c-3.6,6.2-26.4,42.5-26.4,42.5l-23.8,3L275.5,256.5z"/>
<rect x="691.1" y="514.2" class="st2" width="70.6" height="33.6"/>
</svg>
