<?xml version="1.0" encoding="utf-8"?>
<!-- Generator: Adobe Illustrator 23.0.2, SVG Export Plug-In . SVG Version: 6.00 Build 0)  -->
<svg version="1.1" id="befb3988-1ef2-42f3-9de0-b031ba9e9b47"
	 xmlns="http://www.w3.org/2000/svg" xmlns:xlink="http://www.w3.org/1999/xlink" x="0px" y="0px" viewBox="0 0 735.3 580.8"
	 style="enable-background:new 0 0 735.3 580.8;" xml:space="preserve">
<style type="text/css">
	.st0{fill-rule:evenodd;clip-rule:evenodd;fill:#3D3854;}
	.st1{fill-rule:evenodd;clip-rule:evenodd;fill:#FEDA4E;}
	.st2{fill-rule:evenodd;clip-rule:evenodd;fill:#FEFEFE;}
	.st3{fill-rule:evenodd;clip-rule:evenodd;fill:#FFCF90;}
	.st4{fill-rule:evenodd;clip-rule:evenodd;fill:#A66041;}
	.st5{fill-rule:evenodd;clip-rule:evenodd;fill:#A65F41;}
	.st6{fill-rule:evenodd;clip-rule:evenodd;fill:#37335A;}
	.st7{fill-rule:evenodd;clip-rule:evenodd;fill:#FCAB22;}
	.st8{fill-rule:evenodd;clip-rule:evenodd;fill:#F7A922;}
	.st9{fill-rule:evenodd;clip-rule:evenodd;fill:#322E53;}
	.st10{fill-rule:evenodd;clip-rule:evenodd;fill:#342F4D;}
	.st11{fill-rule:evenodd;clip-rule:evenodd;fill:#FCAD22;}
	.st12{fill-rule:evenodd;clip-rule:evenodd;fill:#363256;}
	.st13{fill-rule:evenodd;clip-rule:evenodd;fill:#292A48;}
	.st14{fill-rule:evenodd;clip-rule:evenodd;fill:#2C2B4C;}
	.st15{fill-rule:evenodd;clip-rule:evenodd;fill:#FBAA1E;}
	.st16{fill-rule:evenodd;clip-rule:evenodd;fill:#33304C;}
	.st17{fill-rule:evenodd;clip-rule:evenodd;fill:#FDFDFD;}
	.st18{fill-rule:evenodd;clip-rule:evenodd;fill:#322E4A;}
	.st19{fill-rule:evenodd;clip-rule:evenodd;fill:#322E4D;}
	.st20{fill-rule:evenodd;clip-rule:evenodd;fill:#FFD292;}
	.st21{fill-rule:evenodd;clip-rule:evenodd;fill:#2A2644;}
</style>
<g>
	<path class="st0" d="M103.9,532.5c3.3-0.8,6.8-1.6,9.8-2.8c4.3-1.7,6-3.5,8.8-5.1c0.7,16.9,2,16.9-17.9,23.1
		c-16.9,2.9-31.9,4.1-49.2,1.8c-30.6-4.1-29.3-9.6-28.9-24.2C48.8,535.9,78.3,538.1,103.9,532.5L103.9,532.5z M156,514
		c3.6,2,11.5,8.8,22.6,15c8,4.5,18.1,8.7,27.5,11.5c-1.3,8.2-3.2,13.9-10.4,15.9c-7.2,2.1-19,1.7-25.8-0.8
		c-7.4-2.7-7.7-9.9-9.4-18.3C158.9,529.6,157.3,521.8,156,514L156,514z M98.4,513.2l17.3-5c2.4,16.3-5.5,14.5-18,19
		c-18.6,3.8-49.4,4.1-66.7-4.6c-9-4.6-6.9-7.8-7.3-18.6c7.8,2.5,7.5,7,32.9,10.2C71,516,84.3,515.1,98.4,513.2L98.4,513.2z
		 M105,492.4c2.1-1.1,6.2-2.2,8.8-3.3c3.4-1.5,4.7-3.4,7.4-3.6c1,15.7,0.2,17.7-14.5,21.7c-16.8,4.6-51,5.8-67.9-2.1
		c-9-4.2-8.1-6.4-8-17.6C54.9,497.6,78.5,495.8,105,492.4L105,492.4z M95.9,473.5l8.5-1.9c3.9,4.4,4.6,6,10,8.8
		c-3.1,3.6-11.9,5.7-16.3,6.6c-14,3.4-33.8,3.5-48.2,1.2c-28.6-4.5-26.9-10.7-26.1-24.3C40.1,476.7,73,475.2,95.9,473.5L95.9,473.5z
		 M95.8,448.3c0.7,6.7,1.8,10.3,4.4,15.9l1.7,3.8c-15.2,2.2-27.8,3.5-43.5,2.1c-11.2-1-30.8-4-34.6-12.8
		c7.3-15.4,53.6-13.7,71.6-12.3L95.8,448.3z M131.3,408.2c23.7-3.2,41.9,14.1,47.3,30.7c7.9,24.4-7.9,44.3-29.2,47.2
		C95.2,493.5,81,415.1,131.3,408.2L131.3,408.2z M433,379.9c2.6-2,9.1-6.1,11.5-7.3c2.9,10,9.3,20.3,12.8,30
		c-10.5-1.9-9.1-3.4-14.3-9.5C440.2,389.6,434.7,383.7,433,379.9L433,379.9z M367.2,390.9c0.2-16,40.1-32.5,60.5-11.2
		c9,9.3,14.5,21.7,21.7,24.2c15.5,5.5,55.3,14.9,73,18.9c3.3,0.7,9.1,3.2,11.4,0.3c-1.7-2.8-4.5-2.9-11.1-3.7
		c0.6-4.7,7-24.6,9.1-27.8c14.1,2,36.7,14.2,46.1,20.8c-1.6,12.5-15.5,42.2-21.6,50.7c-6.1,8.6-9.3,12-24.6,9.7
		c-32.2-4.8-61.4-23.1-87.7-36.7c-10.1-5.2-13.2,2.8-25.9-10c-1.5-1.5-3.3-2.6-4.8-4.2c-1.7-1.8-1.8-2.8-3.7-4.5
		c-6.7-2.1-22.1,5.2-27.7-1.4c3-8.1,20.7-5.2,24.3-10.8c-6.2-6.6-28.3,10.5-32.5,6.8c-6.4-5.4,8.1-11.1,12.3-12.9
		c11.1-4.8,18.3-3.7,21.1-7.4l-1.6-0.7c-1.7-0.5-2.1-1.3-10.9,1.4c-10.2,3-26.2,12.8-27.4,12c-4.2-2.6,1.7-8.8,4.3-10.8
		c20.7-16.2,31.6-9.6,34.4-15.3C394.7,372,371.3,390.7,367.2,390.9L367.2,390.9z M212.9,310.4c1.6,2.9,5.3,3.3,10.6,5.3
		c17,6.2-0.4,0.5,35.7-8.5c9-2.2,20.2-3.6,29.7-3.2c6.2,0.3,26.9,4,30.3,3c1.7-7.5-4.7-8.7-11.7-10.5c-6.4-1.6-13.8-3.1-20.5-3.1
		c5.5-9.3,31.4-1.5,40.4,1.5c15,5,29.1,13.2,40.6,22.3c13.3,10.4,34.9,34.2,39.6,49.3c-22.1-0.8-44.4,11.8-44.3,23.6
		c0,7.7,3.6,0.3,0.4,7.2c-1.9,4.1-1.5,6.1-0.5,10.2l5.4,1.9c0.3,6.7,2.6,7.9,9.3,7.5c7.2,11.8,18.1,0.5,28,6.3
		c1.2,0.7,7.6,6.7,9,8.1c7.9,7.7-6.3,41.7-12.1,52.1c-2.2,3.9-5.5,7.7-7,10.9c-5.3,11.1-3,48.6-12.3,57c-6,5.4-20.1,6.9-29.6,4.6
		c-9.7-2.4-11.3-11.3-13.3-21.1c3.2-4,10-2.8,8.1-9.4c-1.5-0.1-17.4,8.1-28,10.6c-27.2,6.3-33.7,1.5-36.3,10.7
		c-4.2,15-2.5,27.2-31.6,25.3c-12.8-0.8-13.9-4.5-17.5-15.2c-1.1-3.3-2.5-9.9-3.7-12.4c-2.9-6.3-26.9-4.4-57.1-23.1
		c-3.5-2.2-6.7-4.2-9.7-6.4c-6.4-4.6-20.6-17.5-24.1-24.1c18.6-1,25.8-3.7,35.3-14c16.7-18,11.4-50.5-14.2-66
		c-14.3-8.7-25.2-7.5-41.4-4c0.2-13.1,8.5-32.7,13.8-42.8c5-9.6,10-18.4,17.5-25.6c2.7-2.6,5.9-4.2,5.3-8.3c-3.7-0.7-8.1,5-11.7,9
		l-4,4.4c-5.9-9.3-16.8-60.5-6.5-68.3c16.2-5.3,53,22.8,56.5,29.3c5.8-0.9,18.9-11,46.3-16.4c9.5-1.8,8.5,2.5,15.7,4.5
		c-0.2,0.1-0.6,0.1-0.7,0.4l-2.1,0.9C244.2,295.9,216.3,301.4,212.9,310.4L212.9,310.4z M311.4,279.7l5.5,7.8
		c-3.3-0.7-8.2-1-10.8-3.2L311.4,279.7z M318.4,283.9c-1.9-2.8-3.5-4.1-4.5-7.7c5.6-4.1,13.5-14.8,14.8-25.2
		c-3.4-1.5-14.7-10.5-12.4-16.4c8.7-2.1,21.2,4.8,24.8,9.5c6.9,9,1.4,23.8,4.7,30.5c1.3,2.6,24.1,33.3,28.3,41
		c-0.8-1.4-11.3-8.6-14.1-10.3c-10.2-6.3-22.9-12.3-34.8-15.6C319.7,287.9,321.3,288.2,318.4,283.9L318.4,283.9z M322.1,231.2
		l-5.8,0.2c-5.1,2.1-5.1,6.4-1.7,11.5l3.1,3.8c2.5,1.7,5.1,3.8,7.7,6.3c-2.6,13.6-15.8,25.5-25.5,30.7c-39.9,21.2-91.7-21.2-77-76.1
		c6.7-25,32.8-52.2,65.7-42.4c14.8,4.4,18.1,9.7,25.8,16.4c12.5,11,16.8,33.2,16,51.8L322.1,231.2z M21.7,522.2
		c7.2,8.1-9.5,19.4,15.5,27.7c24.1,7.9,83.5,6.3,88.7-9.2c1.4-4,0.7-17.5,0.4-22.2c-2.8-3.8-1.4-3-6.2-5.4c-0.1-2.4-0.4-4.6,0.4-6.6
		c0.9-2,2.6-2.4,3.7-4.3c1.9-3.3,0.9-10.8,1.1-15c15.4,4.2,8.8,4,20,16.8c3.7,4.2,6.7,3.6,7.1,16c7.1,20.9,0.1,36.6,19.5,41.1
		c8.1,1.9,18.8,1.8,26.7-0.7c8.3-2.7,10-9.4,12-18.3l17,3.7c5.8,20.5,5.4,31.6,30.9,31c25.2-0.6,25.3-10,31.1-30.8
		c4.8-1.8,18.1-2.7,24.6-4.1c5.8-1.3,18.1-5.4,22-5.8c2.8,9.3,3.7,17.7,10.5,22c7.5,4.8,41.1,7.9,45.8-13.5c1.3-6,2.6-24.8,4.9-28.3
		c-1-20.1,7-24.6,14-39.1c5.8-12.1,9.6-27,10.3-42c17.9,5,10.7-0.8,24.6,6.4c2.6,1.3,19.1,10,20,11.4c2.2,3.2,7.3,102.5,6.2,107.5
		c5,10.2-6.5,11.4,12.5,12.3c3.7,0.2,7.3,0.5,11,0.7c52.6,3.5,125,3.2,177.7,3.7c0.5-4.6,0.9-30-1.4-49.9c-2.5-21.2-1.1-9.5-7.6-71
		c2.2-20.5-12.6-189.8-20.1-198.4c-1.9,2-1.2,0.4-1.1,4.2c0,1.1,0.4,2.9,0.6,4.1c0.4,2.7,0.6,5.2,0.9,7.8l8.7,86.2
		c1.6,16.1,6.5,107.3,4.4,107.5c-0.3,0-6.4-33.8-14.1-60.8c-7.5-26.2-16.5-45.6-19.3-54.4c-4.5-14.2-10.2-27-16.6-40.1
		c-6.8-13.8-15-21.6-27.5-29.3c-8.3-5.1-29.9-14.3-40.5-16.5l5.5-26.3c0.1-6,0.9-1.4-1-3.9c-1.1,4.5-3.2,8.6-4.6,13.8
		c-1.2,4.5-2,9.8-3.3,14.9l-13.3-3.1l-2.9,0.2c0,0.7,0.2,2.6,0.3,3.2c0.1,4.2,0.7-1.5-0.1,1.6c5.2,17-10.4,33.7-19.4,39.7
		c-17.2,11.6-33.6,2.7-36.8-15.2c15.3-1.6,28.4-14.2,31.9-27c-2.6,1.8-4.4,5.2-7.1,7.6c-2.3,2-4.5,3.7-7.5,6
		c-20.8,16.3-45.4,11.2-58.5-5c-21.2-26.3-14.4-59.6-15-96.8c17.2,3,24.9,4.8,43.3,2.7c22.8-2.7,24-6,37.9-9.4
		c-0.7,10.3-2.6,18,1.1,28c2.5,6.8,7.6,15.7,13,17.6c4.2-5.6,8.5-17.2,19.3-12.8c8.1,3.3,7.4,15.4,4.8,24l1.8,0.7l0.1,2.1
		c0.6-0.6,0.6-0.6,1.3-1.7c2.2-4,2.3-11.4,3.3-15c0.9-3.2,7-8.5,9.6-10.9c9.8-8.8,20.6-10.8,26.1-14.1c2.2-0.6,4.4-1.1,6.7-1.7
		l3.4-1.1c3.9-1.7,3.6-6.3,4.1-11.3c11.2-1.4,14.1-1.9,21.7-7.8c4.8-3.8,10.8-10.3,13-16.2c-4,1.9-3.4,3.5-9,7.6
		c-9.6,7-23,13.1-35.3,10c-8-2-14.9-8.5-18.6-12.9c-3.8-4.6-7.6-13.4-9.4-21.1c-2.5-10.7-0.4-46.1,3-56.2
		c4.2-12.6,18.1-25.9,29.7-32.2l2.3,3.8c2.1,4.5,3.5,7.5,7,11c3.7,3.7,9,7,16.1,8.3c2,9.5,6.7,14.5,12.6,18.7
		c6.2,4.4,4.5,1.2,6.1,10c0.9,5.2,2.7,7.3,6.2,9.3c4.9-1.2,8-8,14.4-8.1c16.6-0.2,8.6,37.3-13.5,32.5c-5.9,8-5.2,23-4.8,33.7
		c0.8,18.7,5.9,12.8,16.9,21.1c22.3,6.3,38.1,20.6,45.4,41.4c16.9,48.1,18.3,143.6,12.9,196.1c-0.7,6.6-1.3,13-2.2,19.5
		c-0.8,6.5,0.3,13.7-5.6,15c1.6,9.5,2.8,23.1,2.8,32.8c0,16.9-2.9,17.7-5,25.3l0,2c14-9.1,7.2-39.1,6.9-57c1.2-4.2,2.6,3.3,4.8-14.9
		c5.6-46,6.9-86,4.2-132.7c-1.5-25.4-7.7-76.7-19.7-99c-3.7-6.9-13-17.9-19-20.4c1.5-1.6,0.2-0.4,2.2-1.7
		c14.4-9.5,7.2-8.5,11.5-13.6c6.7-5,10-1.8,14.8-10.6c4.8-8.7,1.8-13.1-0.4-20.6c3.1-3.3,4.9-3.7,7.7-9c9.7-18.1-6-29.8-9.1-33.7
		c10.9-24.3-9.7-33.8-14.3-37.9c2-16.9-4.3-29.5-19.3-34.5c-9.5-3.2-8.5,0-12.1-4.8c-4.6-6.1-11.6-13.4-23.2-13.4
		c-4.3,0-4.9,1.3-7.7,1.9c-3.7,0.7-2.9-0.9-6.2-2c-4.7-1.5-9.1,1.6-13.2,3.1c-3.7-2.6-4-4.5-10.3-6.3c-13.8-3.9-27.1,5.1-33,16.2
		c-15.3,0.8-27.4,9.7-23.7,26.4c-4.3,5.2-9.9,4.3-11.3,14.4c-1.3,9.7,5.1,15.9,4.3,21.3c-0.8,5.4-7.2,10.5-9.5,16.6
		c-2.4,6.3-2.4,15.4,1.6,20.6c2.3,3,4.9,2.9,4.7,7.4c-0.2,4.7-0.4,6.4,1.8,10.4c2.6,4.7,3.8,4.1,6.4,7.1c4.4,5-2.5,16,14.2,24.6
		c13.1,6.7,0.4-0.1,9.9,9.9l2.6,3.6c-10.6,5.1-14.2,8.3-21.5,15.3c-2.2,2.1-0.4,1.2-2,1.2c-2.8-2.5-1.5-1,0-4.9
		c4.8-12,3.3-35.7-6.1-44.9c-2.6-2.6-6-4.2-10.3-6c-3.6-1.6-2,0-4-4c-4.1-7.9-10.7-14.6-19.9-19c-27.2-13-61.6,2.3-81.9,3.7
		c-19.6,1.3-19.3-4.2-25.6-5.8c-1.8,4.6-4.9,7.2-5.5,14.3c-1.8,18.3,9.4,28.5,22.6,36c0.7,10.9,2.5,21,2.7,31
		c0.4,20.5-1.3,40.4,8.2,58.8c6,11.5,8.6,11.8,14.3,18.2c-1.9,1.7-4,2.8-6.2,4.5l-28.5,23.7c-3.4,3.7-7.3,7.3-10.6,9.7
		c-9.4-13.2-18-26.2-27.7-39.7c-2.1-3-5.9-7.1-6.3-10.6c-0.6-4.6,0.1-11.1-0.1-16.2c-0.6-10.8-5.4-16.5-14.5-18.8
		c0.2-16.7,1.1-23.3-5.2-38c-4.7-11.1-11.9-18.9-19-24.3c-38.9-29.9-94.4-3.4-97,51.5c-0.6,13.2,2.7,25.5,7.7,35.9
		c5.7,11.6,11.5,15.8,18.9,23.4c-17,2-31,8.7-44.1,15.1c-3.3-2.5-6.6-6.2-10.9-9.6c-10.5-8.2-27-17.7-40.7-19.3
		c-16-1.9-16.9,7.8-16.9,22.8c0,12.7,1.4,24.4,4.7,36c7.6,26.9,8.1,18.2,2.4,28.6c-7.2,13-14.1,29.5-16.6,44.8
		c-1.8,11.4-0.1,5.5-7.5,12c-7.9,7-10.8,13.2-13.3,27c-17.5-1.6-57.6-2.1-71.2,9.1c-4.2,3.5-4.4,4.7-4.4,11.7
		c0.1,8.5-1.6,16.9,3,21.2c3.1,2.9,2.9,0.3,3.7,4.9c-0.4,8.3-7.4-6.5-6.6,26.1C20.1,518.8,21.3,519.4,21.7,522.2L21.7,522.2z"/>
	<path class="st1" d="M169.9,499.6c1.2-3.8,3-2.9,7.4-3.7c16.7-3,16.1-16.5,19.6-10.4C201,492.6,178,505.9,169.9,499.6L169.9,499.6z
		 M208.6,409.5c-9.2-10.6-1.7-24.4,5.3-22.2c4.1,1.3,5.1,8.4,4.2,13.6C217.1,407,214.9,409.7,208.6,409.5L208.6,409.5z M150.7,377.8
		c7.6,18.1-14.9,24.1-7.9,4.5C144.4,377.8,145.6,377.2,150.7,377.8L150.7,377.8z M234.8,339.6c0.9-6.4,20.6-16.2,25.8-18.6
		c11.7-5.5,24.6-10.5,30.3,1.1c12,24.4-4.9,65.3-12.1,64.5c-2.2-3.6,1.4-5.7,4.8-13.8c5.9-14.2,9.4-33.9,2.9-48.1
		c-2.8-6-6-6-13.3-3.8C254.1,326.6,240.1,339.5,234.8,339.6L234.8,339.6z M212.9,310.4c3.4-9,31.3-14.5,37.6-16.6l2.1-0.9
		c0.1-0.3,0.5-0.2,0.7-0.4c-7.2-2-6.3-6.3-15.7-4.5c-27.4,5.4-40.4,15.5-46.3,16.4c-3.5-6.5-40.3-34.6-56.5-29.3
		c-10.2,7.8,0.6,59,6.5,68.3l4-4.4c3.6-4,8-9.7,11.7-9c0.6,4.1-2.6,5.7-5.3,8.3c-7.5,7.3-12.5,16-17.5,25.6
		c-5.3,10.1-13.6,29.8-13.8,42.8c16.1-3.5,27.1-4.7,41.4,4c25.6,15.5,30.9,48,14.2,66c-9.5,10.3-16.8,13-35.3,14
		c3.5,6.6,17.7,19.5,24.1,24.1c3.1,2.2,6.2,4.2,9.7,6.4c30.2,18.7,54.2,16.8,57.1,23.1c1.2,2.5,2.6,9.1,3.7,12.4
		c3.6,10.7,4.8,14.4,17.5,15.2c29.1,1.9,27.4-10.4,31.6-25.3c2.6-9.3,9-4.4,36.3-10.7c10.6-2.5,26.5-10.7,28-10.6
		c2,6.6-4.9,5.4-8.1,9.4c2,9.7,3.6,18.7,13.3,21.1c9.5,2.3,23.6,0.8,29.6-4.6c9.3-8.4,7-45.9,12.3-57c1.6-3.3,4.9-7,7-10.9
		c5.8-10.5,20-44.4,12.1-52.1c-1.4-1.4-7.8-7.4-9-8.1c-9.9-5.8-20.8,5.5-28-6.3c-6.7,0.4-9-0.7-9.3-7.5l-5.4-1.9
		c-1-4-1.4-6.1,0.5-10.2c3.2-6.9-0.4,0.5-0.4-7.2c-0.1-11.8,22.2-24.4,44.3-23.6c-4.6-15.1-26.3-38.9-39.6-49.3
		c-11.5-9-25.7-17.3-40.6-22.3c-9-3-34.8-10.7-40.4-1.5c6.7,0.1,14.1,1.5,20.5,3.1c6.9,1.8,13.4,3,11.7,10.5c-3.4,1-24.1-2.7-30.3-3
		c-9.5-0.4-20.7,1-29.7,3.2c-36.1,9.1-18.7,14.8-35.7,8.5C218.2,313.7,214.5,313.3,212.9,310.4L212.9,310.4z"/>
	<path class="st2" d="M569.4,187.3c-5.5,3.3-16.3,5.3-26.1,14.1c-2.6,2.4-8.7,7.7-9.6,10.9c-1,3.6-1,11-3.3,15
		c-0.6,1.1-0.7,1.1-1.3,1.7c-0.7,5.8-8.5,12.1-15.4,13.1c-0.2,4.6,0.6,9.1,2.1,12.7c1.7,4.3,2.7,6.3,7.2,7.1l13.3,3.1
		c1.3-5.1,2-10.4,3.3-14.9c1.4-5.2,3.5-9.3,4.6-13.8c1.9,2.5,1.2-2.1,1,3.9l-5.5,26.3c10.6,2.2,32.3,11.4,40.5,16.5
		c12.4,7.7,20.7,15.5,27.5,29.3c6.4,13.1,12,25.9,16.6,40.1c5.1,16.1,10.5,28.8,16.3,44.2c6.2-0.2,10.2,3,15.3,0.5
		c0.1-10-1.4-26.7-2.4-37l-8.7-86.2c-0.3-2.6-0.5-5.1-0.9-7.8c-0.2-1.2-0.5-3-0.6-4.1c-0.1-3.8-0.7-2.2,1.1-4.2
		c7.5,8.6,22.4,177.9,20.1,198.4c8.4,1.8,19.9,3.5,28,0.7c5.9-1.3,4.8-8.6,5.6-15c0.8-6.5,1.5-13,2.2-19.5
		c5.4-52.6,4.1-148.1-12.9-196.1c-7.3-20.8-23.1-35.1-45.4-41.4c-2.2,0.8-2.2,4-6,9.5C619.7,217.4,568.5,221.7,569.4,187.3
		L569.4,187.3z"/>
	<path class="st3" d="M435.6,255.7c1.8-1.1-0.6-0.9,3-0.5c18.5,2.3,16.5-2.1,24.9-3.4l0.9,0.1c2-2.7,0.6-2.5,3.4-3.3
		c3.9,8.6-5.7,19.7-12.8,22C444,274.2,431.4,262.9,435.6,255.7L435.6,255.7z M458.7,215.2c10.5-0.4,8.3,9.5,4.2,11.1
		c-3.1,1.2-5.7-1.1-6.4-3.3C455.1,219,456.8,217.9,458.7,215.2L458.7,215.2z M445.4,244c-1.7,4.7-8.5,3.4-12.5,1.9
		c-8.4-3.2-3.4-9.3,0.5-21.1c1.2-3.7,0.9-10.2,3-12.8c7,5.6-6,23.4-4,29.7C438.1,245.2,442.4,242.4,445.4,244L445.4,244z
		 M420.9,224.1c-4.5-4.7-4-11.3,3.2-11.6C427.5,216.6,427.7,223.2,420.9,224.1L420.9,224.1z M511.2,221.9c0,0-3.5,0.1,1.4-7.1
		c1.6-2.3,2.7-3.6,5.7-3.9L511.2,221.9z M451.9,199c0.5-9.9,23.8-6,25.1,3.5c-4.7-0.6-7.2-2.7-11.7-3.5
		C460.9,198.1,455.2,200.5,451.9,199L451.9,199z M410.7,199.8c0.8-7.2,12.4-7.6,17.9-5.4c2.8,1.1,3.2,1.9,3.7,5.1
		c-4.1,0.6-6.6-0.9-11.1-0.9C416.6,198.5,414.8,200.2,410.7,199.8L410.7,199.8z M520.3,266.9c-6.9-2.8-12-22.8-11.6-28.8
		c10,3,15.2-4.9,18.5-11.9c2.6-8.6,3.3-20.8-4.8-24c-10.8-4.4-15.1,7.2-19.3,12.8c-5.4-1.8-10.5-10.8-13-17.6
		c-3.7-10.1-1.8-17.7-1.1-28c-13.9,3.3-15.1,6.7-37.9,9.4c-18.3,2.2-26.1,0.3-43.3-2.7c0.5,37.3-6.2,70.5,15,96.8
		c13,16.2,37.7,21.3,58.5,5c3-2.3,5.2-4,7.5-6c2.7-2.3,4.5-5.8,7.1-7.6c-3.5,12.8-16.5,25.4-31.9,27c3.2,17.8,19.6,26.7,36.8,15.2
		C509.9,300.6,525.6,283.9,520.3,266.9L520.3,266.9z"/>
	<path class="st4" d="M567.9,146.8c1.3-0.8-1.9-1.2,3.2-0.7c0.9,0.1,2.8,0.6,4,0.8c5.3,0.8,4.5-0.4,7.1,1.7
		C579.8,151.9,572.9,153.2,567.9,146.8L567.9,146.8z M563.8,135.6c3.9,0.2,7.3,4.2,15,4c9.5-0.3,11.4-5.1,14.8-5
		c-4.6,11.5-23.9,8.9-28.5,5.2C562.4,137.5,562.9,138.3,563.8,135.6L563.8,135.6z M599.7,108.1c-2.8,6.2-9.3,1.8-7.7-4.7
		C594,95.3,602.6,101.7,599.7,108.1L599.7,108.1z M556.7,95.3c9.3-0.2,5.4,10.1,2.2,10.5c-2.8-0.6-3.7-0.7-4-4.2
		C554.6,98.8,555.8,96.7,556.7,95.3L556.7,95.3z M574.7,126.1c-3.4,4.6-9.6-0.5-12-2.6c-1.5-3,4.6-15,5.6-19.6
		c0.8-3.9-0.1-4.9,2.4-6.3c2.4,4.8-1.4,12.4-3.4,17.1C561.6,128.2,570.8,122.5,574.7,126.1L574.7,126.1z M586.9,87.4
		c-4.4-9.3,22.2-8.1,24.7,4c-4.4,1-7.2-2.3-11.7-3.7C594,86,590.2,88.5,586.9,87.4L586.9,87.4z M548.5,84.3c0.6-3.4,0.9-4.1,3.8-5.3
		c4.4-1.8,15.8-2.3,15.4,5.7c-4,0.1-5.5-1.2-9-1.7C555.1,82.4,552.1,83.7,548.5,84.3L548.5,84.3z M569.4,187.3
		c-0.8,34.4,50.4,30.1,66.7,6.9c3.9-5.5,3.8-8.7,6-9.5c-10.9-8.3-16.1-2.4-16.9-21.1c-0.4-10.7-1.1-25.6,4.8-33.7
		c22.2,4.8,30.1-32.7,13.5-32.5c-6.4,0.1-9.6,6.9-14.4,8.1c-3.5-1.9-5.3-4.1-6.2-9.3c-1.6-8.8,0.1-5.6-6.1-10
		c-5.9-4.2-10.6-9.2-12.6-18.7c-7.1-1.3-12.4-4.7-16.1-8.3c-3.5-3.5-4.9-6.5-7-11l-2.3-3.8C567,50.7,553.2,63.9,549,76.6
		c-3.4,10.2-5.5,45.5-3,56.2c1.8,7.7,5.6,16.5,9.4,21.1c3.7,4.4,10.6,10.9,18.6,12.9c12.3,3,25.7-3.1,35.3-10c5.6-4.1,5-5.6,9-7.6
		c-2.2,6-8.1,12.4-13,16.2c-7.6,6-10.5,6.5-21.7,7.8c-0.5,5-0.2,9.6-4.1,11.3l-3.4,1.1C573.8,186.1,571.5,186.7,569.4,187.3
		L569.4,187.3z"/>
	<path class="st3" d="M367.2,390.9c4.2-0.2,27.5-18.9,39-12.8c-2.8,5.8-13.7-0.9-34.4,15.3c-2.6,2-8.5,8.2-4.3,10.8
		c1.3,0.8,17.3-8.9,27.4-12c8.9-2.7,9.3-1.9,10.9-1.4l1.6,0.7c-2.8,3.7-10,2.7-21.1,7.4c-4.2,1.8-18.8,7.5-12.3,12.9
		c4.2,3.7,26.3-13.5,32.5-6.8c-3.6,5.6-21.3,2.7-24.3,10.8c5.6,6.6,20.9-0.6,27.7,1.4c1.8,1.7,2,2.7,3.7,4.5
		c1.5,1.6,3.3,2.7,4.8,4.2c12.7,12.8,15.8,4.8,25.9,10c26.2,13.5,55.4,31.9,87.7,36.7c15.3,2.3,18.5-1.2,24.6-9.7
		c6.1-8.5,20-38.2,21.6-50.7c-9.4-6.6-32-18.7-46.1-20.8c-2.1,3.3-8.5,23.1-9.1,27.8c6.5,0.9,9.4,1,11.1,3.7
		c-2.3,2.8-8.1,0.4-11.4-0.3c-17.7-4-57.5-13.3-73-18.9c-7.2-2.5-12.8-14.9-21.7-24.2C407.2,358.5,367.4,374.9,367.2,390.9
		L367.2,390.9z"/>
	<path class="st1" d="M273.7,188.3l9,0l0,9.9c5.7,1.2,8.3,2.7,11.6,6.2c-1.6,3.5-3,5.9-5.7,8.6c-3.9-1.8-19.6-8.6-19.5,1.3
		c0.1,10,32.5,6.7,26.4,30.1c-2.4,9.1-9.6,11-16.2,12.6l-0.4,8.4l-8.5-0.3l-0.5-8.2c-7.7-1.8-9.8-3.5-15.4-6.4
		c1.2-4.2,4.1-5.9,6.4-9.2c5.3,1.9,16.2,9.8,21.8,2c9.5-13-28.8-6.7-25.6-31.7c1.2-9.4,8.1-12.2,16.2-13.8L273.7,188.3z
		 M314.5,242.9c-3.4-5.1-3.3-9.4,1.7-11.5c4.2-9.1-2.4-27.7-7.2-34.5c-22.9-32.3-65-19.5-74.1,18.3c-3.1,13-0.1,25.7,5.3,36.1
		C260.1,289.4,305.7,277.4,314.5,242.9L314.5,242.9z"/>
	<path class="st1" d="M148.9,442.8c8.4-3.9,10.1,18.1,2.6,21.3c-5.1,2.1-7.2-4.4-7.4-8.7C143.8,450.1,144.4,444.9,148.9,442.8
		L148.9,442.8z M122.5,456.1c-5-2.9-6.3-17.4,0.9-20.1C128.4,439,129.7,454.2,122.5,456.1L122.5,456.1z M131.3,408.2
		c-50.3,6.8-36.1,85.2,18.1,77.9c21.3-2.9,37.1-22.8,29.2-47.2C173.2,422.3,155,405,131.3,408.2L131.3,408.2z"/>
	<path class="st1" d="M317.6,246.7c-3.6,1.7-1.5,5-8.5,14c-3.3,4.2-6.9,7.5-11.8,10.8c-10.1,6.7-23,8.5-35.9,3.6
		c-22.8-8.5-34.7-36.5-30-59.6c2.6-12.6,8.4-20.9,16.5-28.6c27.5-26.2,75.5-4.1,72.1,42.8c0.8,0.8,0.4,0.9,2,1.6l8.4,2.2
		c0.8-18.7-3.5-40.9-16-51.8c-7.7-6.7-11-12-25.8-16.4c-32.9-9.7-59,17.5-65.7,42.4c-14.8,54.9,37,97.3,77,76.1
		c9.7-5.2,22.9-17.1,25.5-30.7C322.7,250.5,320.1,248.3,317.6,246.7L317.6,246.7z"/>
	<path class="st5" d="M663.2,526l5,0c3.3-4.8,5.2-4.9,7.2-12.7c1.3-5.1,1-12.7,3.3-17c2.6,4-0.9,21.4-6.3,27.6
		c-1.4,1.6-1.3,0.9-2.6,2.4c1.3,1-1.5,0.7,2.5,0.9c1.5,0.1,1.1,0,2.7-0.6c2-0.6,3.4-1.3,4.9-2.4c-1.9-1.8,2-3.1,4.8-12.4
		c1-3.4,2.2-13.9,3-15.5c3,3,0.8,11.6-0.4,15.5c-1.4,4.5-5,9.2-5.5,11.6l8.8-6.4l0-2c2.1-7.6,4.9-8.3,5-25.3
		c0-9.7-1.1-23.4-2.8-32.8c-7.5,2.5-19.6,0.9-28-0.7c0.4,7.4,0.7,15.5,0.7,23.5c0,0.7,0,1.3,0,2c0.2,1.2,0,2.1,0.2,3.3
		c0.3,1.8,0.1,5.5,0.1,7.6c0,3.4,0.3,6.2-0.6,8.8c-0.1,0.7-0.2,1.5-0.4,2.2C664.2,512.2,663.6,520.1,663.2,526L663.2,526z"/>
	<path class="st6" d="M514.2,101.2c0-0.1,0.1-0.2,0.1-0.3l0.1,0.3H514.2z"/>
	<path class="st3" d="M328.7,251c-1.3,10.4-9.2,21.1-14.8,25.2c1,3.6,2.6,4.9,4.5,7.7c2.9,4.3,1.3,4.1,6.9,5.7
		c11.9,3.4,24.6,9.3,34.8,15.6c2.8,1.7,13.2,8.9,14.1,10.3c-4.2-7.7-27.1-38.4-28.3-41c-3.2-6.6,2.2-21.4-4.7-30.5
		c-3.6-4.7-16.1-11.6-24.8-9.5C314,240.5,325.3,249.4,328.7,251L328.7,251z"/>
	<path class="st7" d="M273.4,197.8c-8.1,1.6-15,4.4-16.2,13.8c-3.1,24.9,35.1,18.6,25.6,31.7c-5.6,7.8-16.6-0.1-21.8-2
		c-2.3,3.2-5.2,5-6.4,9.2c5.6,2.9,7.6,4.5,15.4,6.4l0.5,8.2l8.5,0.3l0.4-8.4c6.6-1.5,13.8-3.4,16.2-12.6
		c6.1-23.4-26.3-20.1-26.4-30.1c-0.1-9.9,15.7-3.1,19.5-1.3c2.7-2.6,4.1-5,5.7-8.6c-3.3-3.4-5.9-5-11.6-6.2l0-9.9l-9,0L273.4,197.8z
		"/>
	<path class="st1" d="M104.7,547.7l-0.7-15.2c-25.7,5.7-55.2,3.4-77.3-7.2c-0.5,14.6-1.7,20.2,28.9,24.2
		C72.8,551.8,87.8,550.6,104.7,547.7L104.7,547.7z"/>
	<path class="st1" d="M106.5,507.2c-0.1-2.9,0-5.7,0-8.6c0-2.7,0.8-6.6-1.6-6.1c-26.5,3.4-50,5.1-74.3-4.9c-0.1,11.1-1,13.4,8,17.6
		C55.6,513,89.7,511.8,106.5,507.2L106.5,507.2z"/>
	<path class="st7" d="M178.6,529c-11.1-6.2-19-12.9-22.6-15c1.3,7.8,2.9,15.5,4.5,23.3c1.7,8.4,2,15.5,9.4,18.3
		c6.7,2.5,18.6,2.9,25.8,0.8c7.3-2.1,9.1-7.7,10.4-15.9C196.7,537.7,186.5,533.5,178.6,529L178.6,529z"/>
	<path class="st1" d="M98.2,487.1l0-12.7c-1.2-1.1,2.3-1.6-2.3-0.9c-22.9,1.7-55.8,3.1-72.1-9.5c-0.8,13.5-2.5,19.8,26.1,24.3
		C64.4,490.6,84.2,490.5,98.2,487.1L98.2,487.1z"/>
	<path class="st1" d="M97.7,527.2l0.4-1.1c0-0.1,0.1-0.4,0.2-0.6l0.1-12.3c-14,1.9-27.4,2.8-41.7,1c-25.5-3.1-25.1-7.7-32.9-10.2
		c0.3,10.8-1.7,14,7.3,18.6C48.3,531.4,79.2,531.1,97.7,527.2L97.7,527.2z"/>
	<path class="st7" d="M100.2,464.2c-2.6-5.6-3.7-9.2-4.4-15.9c-1.6,2.6-6.1,0.7-14.9,0.3c-11.8-0.6-21.7-0.5-33.3,2.3
		C21,457.2,46.1,473.2,100.2,464.2L100.2,464.2z"/>
	<path class="st8" d="M317.6,246.7l-3.1-3.8c-8.8,34.6-54.4,46.6-74.3,8.5c-5.5-10.5-8.4-23.1-5.3-36.1
		c9.1-37.8,51.2-50.7,74.1-18.3c4.8,6.8,11.4,25.4,7.2,34.5l5.8-0.2c-1.6-0.6-1.2-0.8-2-1.6c3.4-46.9-44.6-69-72.1-42.8
		c-8.1,7.7-13.9,16-16.5,28.6c-4.7,23.1,7.2,51.1,30,59.6c12.9,4.8,25.8,3.1,35.9-3.6c4.9-3.2,8.5-6.6,11.8-10.8
		C316.1,251.7,314,248.4,317.6,246.7L317.6,246.7z"/>
	<path class="st2" d="M126.3,518.5c0.7,1,0.8,0.4,1.4,2.5c0.1,0.2,0.1,1.5,0.2,1.8l23.4-0.4l1-2.5c-0.4-12.4-3.4-11.8-7.1-16
		c-11.2-12.7-4.6-12.5-20-16.8c-0.2,4.2,0.8,11.7-1.1,15c-1.1,1.9-2.8,2.3-3.7,4.3c-0.8,1.9-0.4,4.2-0.4,6.6
		C124.9,515.5,123.5,514.7,126.3,518.5L126.3,518.5z"/>
	<path class="st1" d="M100.2,464.2c-54,9-79.2-7-52.6-13.4c11.7-2.8,21.5-2.9,33.3-2.3c8.8,0.4,13.3,2.4,14.9-0.3l-0.3-3.2
		c-18-1.4-64.3-3.2-71.6,12.3c3.8,8.8,23.4,11.8,34.6,12.8c15.6,1.4,28.3,0,43.5-2.1L100.2,464.2z"/>
	<path class="st9" d="M234.8,339.6c5.3-0.1,19.2-13,38.4-18.7c7.3-2.2,10.5-2.2,13.3,3.8c6.5,14.2,3,33.9-2.9,48.1
		c-3.3,8.1-7,10.1-4.8,13.8c7.2,0.9,24-40,12.1-64.5c-5.7-11.6-18.6-6.6-30.3-1.1C255.4,323.4,235.8,333.3,234.8,339.6L234.8,339.6z
		"/>
	<path class="st10" d="M464.5,252c-4,8.2-23.3,14.5-28.8,3.7c-4.3,7.2,8.4,18.4,19.4,15c7.2-2.3,16.7-13.4,12.8-22
		C465.1,249.5,466.4,249.3,464.5,252L464.5,252z"/>
	<path class="st11" d="M103.9,532.5l0.7,15.2c19.9-6.2,18.6-6.2,17.9-23.1c-2.9,1.6-4.5,3.4-8.8,5.1
		C110.8,530.9,107.2,531.7,103.9,532.5L103.9,532.5z"/>
	<path class="st12" d="M208.6,409.5c6.4,0.2,8.5-2.5,9.5-8.7c0.9-5.2-0.1-12.3-4.2-13.6C206.8,385.1,199.4,398.9,208.6,409.5
		L208.6,409.5z"/>
	<path class="st7" d="M98.4,513.2l-0.1,12.3c0,0.2-0.1,0.5-0.2,0.6l-0.4,1.1c12.5-4.5,20.4-2.8,18-19L98.4,513.2z"/>
	<path class="st7" d="M105,492.4c2.4-0.5,1.6,3.4,1.6,6.1c0,2.9-0.1,5.7,0,8.6c14.7-4,15.6-6,14.5-21.7c-2.7,0.2-4,2.1-7.4,3.6
		C111.2,490.3,107,491.4,105,492.4L105,492.4z"/>
	<path class="st12" d="M148.9,442.8c-4.5,2.1-5.1,7.3-4.8,12.6c0.3,4.3,2.3,10.8,7.4,8.7C159,461,157.3,438.9,148.9,442.8
		L148.9,442.8z"/>
	<path class="st13" d="M520.3,266.9c0.8-3.1,0.3,2.6,0.1-1.6c0-0.6-0.2-2.5-0.3-3.2l2.9-0.2c-4.6-0.8-5.5-2.8-7.2-7.1
		c-1.5-3.6-2.3-8.1-2.1-12.7c6.9-0.9,14.7-7.3,15.4-13.1l-0.1-2.1l-1.8-0.7c-3.3,6.9-8.4,14.9-18.5,11.9
		C508.3,244.1,513.4,264.1,520.3,266.9L520.3,266.9z"/>
	<path class="st14" d="M445.4,244c-3-1.6-7.3,1.2-12.9-2.3c-2-6.3,11.1-24.1,4-29.7c-2.1,2.6-1.8,9.1-3,12.8
		c-4,11.8-8.9,17.9-0.5,21.1C436.9,247.4,443.7,248.7,445.4,244L445.4,244z"/>
	<path class="st9" d="M169.9,499.6c8.1,6.3,31.1-7,27-14.1c-3.6-6.1-3,7.4-19.6,10.4C172.9,496.7,171.1,495.7,169.9,499.6
		L169.9,499.6z"/>
	<path class="st15" d="M95.9,473.5c4.6-0.7,1.1-0.3,2.3,0.9l0,12.7c4.4-0.9,13.2-3,16.3-6.6c-5.4-2.9-6.1-4.5-10-8.8L95.9,473.5z"/>
	<path class="st12" d="M150.7,377.8c-5.1-0.6-6.3,0-7.9,4.5C135.8,401.9,158.3,395.9,150.7,377.8L150.7,377.8z"/>
	<path class="st12" d="M122.5,456.1c7.3-1.9,5.9-17.1,0.9-20.1C116.2,438.7,117.5,453.2,122.5,456.1L122.5,456.1z"/>
	<path class="st16" d="M586.9,87.4c3.4,1,7.1-1.5,13,0.3c4.4,1.3,7.3,4.6,11.7,3.7C609,79.4,582.4,78.1,586.9,87.4L586.9,87.4z"/>
	<path class="st17" d="M435.6,255.7c5.5,10.8,24.8,4.5,28.8-3.7l-0.9-0.1c-8.4,1.3-6.4,5.6-24.9,3.4
		C435,254.8,437.4,254.6,435.6,255.7L435.6,255.7z"/>
	<path class="st18" d="M451.9,199c3.3,1.5,9-0.9,13.4-0.1c4.6,0.8,7.1,3,11.7,3.5C475.7,193,452.4,189.1,451.9,199L451.9,199z"/>
	<path class="st19" d="M563.8,135.6c-0.8,2.7-1.4,1.9,1.3,4.1c4.6,3.7,24,6.3,28.5-5.2c-3.4,0-5.4,4.8-14.8,5
		C571.1,139.8,567.6,135.8,563.8,135.6L563.8,135.6z"/>
	<path class="st19" d="M410.7,199.8c4.2,0.5,5.9-1.3,10.6-1.2c4.5,0,7,1.5,11.1,0.9c-0.6-3.3-0.9-4-3.7-5.1
		C423.1,192.1,411.4,192.6,410.7,199.8L410.7,199.8z"/>
	<path class="st14" d="M574.7,126.1c-3.8-3.6-13.1,2.1-7.4-11.4c2-4.7,5.7-12.3,3.4-17.1c-2.4,1.4-1.5,2.4-2.4,6.3
		c-1,4.6-7.1,16.5-5.6,19.6C565.1,125.6,571.2,130.7,574.7,126.1L574.7,126.1z"/>
	<path class="st10" d="M458.7,215.2c-1.9,2.7-3.6,3.8-2.2,7.8c0.7,2.1,3.3,4.4,6.4,3.3C467,224.7,469.2,214.8,458.7,215.2
		L458.7,215.2z"/>
	<path class="st16" d="M548.5,84.3c3.6-0.5,6.5-1.9,10.3-1.3c3.5,0.5,5,1.8,9,1.7c0.4-7.9-11.1-7.5-15.4-5.7
		C549.4,80.2,549.1,80.9,548.5,84.3L548.5,84.3z"/>
	<path class="st16" d="M599.7,108.1c2.9-6.4-5.8-12.9-7.7-4.7C590.4,109.9,597,114.3,599.7,108.1L599.7,108.1z"/>
	<path class="st19" d="M420.9,224.1c6.9-0.9,6.6-7.5,3.2-11.6C416.8,212.9,416.4,219.4,420.9,224.1L420.9,224.1z"/>
	<path class="st14" d="M668.1,526l0.1,1.2l1.4-0.8c1.4-1.5,1.3-0.8,2.6-2.4c5.4-6.2,9-23.6,6.3-27.6c-2.2,4.3-1.9,11.9-3.3,17
		C673.3,521,671.4,521.2,668.1,526L668.1,526z"/>
	<path class="st14" d="M679.8,524.2l1.8-0.9c0.6-2.4,4.1-7.1,5.5-11.6c1.2-3.9,3.4-12.5,0.4-15.5c-0.8,1.6-2,12.1-3,15.5
		C681.8,521.1,677.9,522.4,679.8,524.2L679.8,524.2z"/>
	<path class="st16" d="M556.7,95.3c-0.9,1.4-2,3.4-1.8,6.3c0.3,3.5,1.3,3.7,4,4.2C562.1,105.4,565.9,95.2,556.7,95.3L556.7,95.3z"/>
	<path class="st16" d="M571.1,146.1c-5.2-0.5-1.9-0.1-3.2,0.7c5,6.4,12,5.1,14.4,1.8c-2.7-2.1-1.8-0.9-7.1-1.7
		C573.9,146.7,572,146.2,571.1,146.1L571.1,146.1z"/>
	<path class="st20" d="M306.1,284.2c2.6,2.2,7.5,2.4,10.8,3.2l-5.5-7.8L306.1,284.2z"/>
	<path class="st21" d="M511.2,221.9l7.1-11c-3,0.4-4.1,1.6-5.7,3.9C507.7,222,511.2,221.9,511.2,221.9L511.2,221.9z"/>
	<path class="st0" d="M470,497.5c1.6,28.3,3,60.1,2.4,62.9c5,10.2-6.5,11.4,12.5,12.3c3.7,0.2,7.3,0.5,11,0.7
		c52.6,3.5,125,3.2,177.7,3.7c0.5-4.6,0.9-30-1.4-49.9c-2.4-20.2-1.2-10.5-6.8-63.1l-7.6,3.4l-12.2,4.8l-12.5,4.2l-12.7,3.6l-13,3
		l-13.2,2.4l-13.4,1.7l-13.6,1l-13.8,0.3l-13.8-0.3l-18.3-1.6l-14.2,4.1l-13,3l-13.2,2.4L470,497.5z"/>
</g>
</svg>
